<svg xmlns="http://www.w3.org/2000/svg" width="12" height="12" viewBox="0 0 12 12">
  <defs>
    <style>
      .cls-1 {
        fill: #e1e1e1;
        fill-rule: evenodd;
      }
    </style>
  </defs>
  <path id="Кнопка_закрытия_копия" data-name="Кнопка закрытия копия" class="cls-1" d="M1404.72,184l-3.41,3.408a1,1,0,0,0-.31.75,1.117,1.117,0,0,0,.31.784l0.75,0.75a1.127,1.127,0,0,0,.78.307,1.008,1.008,0,0,0,.75-0.307l3.41-3.408,3.41,3.408a1.008,1.008,0,0,0,.75.307,1.145,1.145,0,0,0,.78-0.307l0.75-.75a1.162,1.162,0,0,0,.31-0.784,1.043,1.043,0,0,0-.31-0.75L1409.28,184l3.41-3.408a1.039,1.039,0,0,0,.31-0.749,1.162,1.162,0,0,0-.31-0.784l-0.75-.75a1.144,1.144,0,0,0-.78-0.306,1.007,1.007,0,0,0-.75.306l-3.41,3.408-3.41-3.408a1.007,1.007,0,0,0-.75-0.306,1.126,1.126,0,0,0-.78.306l-0.75.75a1.117,1.117,0,0,0-.31.784,1,1,0,0,0,.31.749Z" transform="translate(-1401 -178)"/>
</svg>
