<svg width="380" height="380" viewBox="0 0 380 380" fill="none" xmlns="http://www.w3.org/2000/svg">
<g opacity="0.2">
<path d="M349.216 86.2457C342.145 75.4196 333.857 65.1562 324.35 55.6497C314.844 46.1432 304.58 37.8546 293.754 30.7841L349.216 86.2457Z" fill="url(#paint0_linear)"/>
<path d="M272.39 18.7353L361.265 107.61C363.953 113.197 366.351 118.889 368.461 124.662L255.338 11.5391C261.111 13.6486 266.803 16.0474 272.39 18.7353Z" fill="url(#paint1_linear)"/>
<path d="M241.584 7.10115C237.274 5.88979 232.929 4.83342 228.559 3.93202L376.068 151.441C375.167 147.071 374.11 142.726 372.899 138.416L241.584 7.10115Z" fill="url(#paint2_linear)"/>
<path d="M378.045 162.733L217.267 1.95512C213.568 1.42177 209.857 0.997513 206.138 0.682419L379.318 173.862C379.002 170.143 378.578 166.432 378.045 162.733Z" fill="url(#paint3_linear)"/>
<path d="M379.898 183.758L196.242 0.101913C192.936 -0.00608935 189.627 -0.0282759 186.32 0.035414L379.965 193.68C380.028 190.373 380.006 187.064 379.898 183.758Z" fill="url(#paint4_linear)"/>
<path d="M379.583 202.615L177.385 0.416639C174.367 0.616285 171.352 0.887677 168.344 1.23079L378.769 211.656C379.112 208.648 379.384 205.633 379.583 202.615Z" fill="url(#paint5_linear)"/>
<path d="M377.653 219.856L160.144 2.34669C157.354 2.78825 154.572 3.29213 151.8 3.85832L376.142 228.2C376.708 225.428 377.212 222.646 377.653 219.856Z" fill="url(#paint6_linear)"/>
<path d="M374.426 235.801L144.199 5.57362C141.601 6.21632 139.013 6.91459 136.439 7.66847L372.332 243.561C373.085 240.987 373.784 238.399 374.426 235.801Z" fill="url(#paint7_linear)"/>
<path d="M370.104 250.65L129.35 9.8957C126.918 10.7125 124.5 11.5799 122.096 12.4978L367.502 257.904C368.42 255.5 369.288 253.082 370.104 250.65Z" fill="url(#paint8_linear)"/>
<path d="M364.823 264.54L115.46 15.1773C113.178 16.1495 110.911 17.1683 108.661 18.2338L361.766 271.339C362.832 269.089 363.851 266.822 364.823 264.54Z" fill="url(#paint9_linear)"/>
<path d="M358.676 277.565L102.435 21.3236C100.29 22.4377 98.1624 23.5954 96.0526 24.7969L355.203 283.947C356.405 281.838 357.562 279.71 358.676 277.565Z" fill="url(#paint10_linear)"/>
<path d="M351.733 289.793L90.2068 28.2668C88.1905 29.5132 86.1925 30.8008 84.214 32.1297L347.87 295.786C349.199 293.807 350.487 291.809 351.733 289.793Z" fill="url(#paint11_linear)"/>
<path d="M344.042 301.274L78.7265 35.958C76.8323 37.3297 74.9578 38.7408 73.104 40.1911L339.809 306.896C341.259 305.042 342.67 303.168 344.042 301.274Z" fill="url(#paint12_linear)"/>
<path d="M335.638 312.041L67.9592 44.3621C66.1826 45.8543 64.4269 47.3842 62.6931 48.9517L331.048 317.307C332.616 315.573 334.146 313.817 335.638 312.041Z" fill="url(#paint13_linear)"/>
<path d="M326.545 322.12L57.8804 53.4547C57.1324 54.179 56.3888 54.9107 55.6497 55.6497C54.7426 56.5568 53.8466 57.4709 52.9616 58.3916L321.608 327.038C322.529 326.153 323.443 325.257 324.35 324.35C325.089 323.611 325.821 322.868 326.545 322.12Z" fill="url(#paint14_linear)"/>
<path d="M316.779 331.524L48.4758 63.2214C46.9143 64.9614 45.3906 66.7233 43.9046 68.506L311.494 336.095C313.277 334.609 315.039 333.086 316.779 331.524Z" fill="url(#paint15_linear)"/>
<path d="M306.332 340.249L39.7512 73.6684C38.3072 75.5286 36.9025 77.4095 35.5371 79.3099L300.69 344.463C302.591 343.098 304.471 341.693 306.332 340.249Z" fill="url(#paint16_linear)"/>
<path d="M295.184 348.273L31.7273 84.8158C30.4049 86.801 29.1238 88.8057 27.8841 90.8285L289.172 352.116C291.194 350.876 293.199 349.595 295.184 348.273Z" fill="url(#paint17_linear)"/>
<path d="M283.306 355.567L24.4335 96.6936C23.239 98.8105 22.0883 100.945 20.9813 103.097L276.903 359.019C279.055 357.912 281.189 356.761 283.306 355.567Z" fill="url(#paint18_linear)"/>
<path d="M270.656 362.088L17.9122 109.344C16.8541 111.602 15.8428 113.876 14.8785 116.166L263.834 365.122C266.124 364.157 268.398 363.146 270.656 362.088Z" fill="url(#paint19_linear)"/>
<path d="M257.176 367.779L12.2215 122.824C11.3117 125.236 10.4527 127.663 9.64452 130.103L249.897 370.355C252.337 369.547 254.764 368.688 257.176 367.779Z" fill="url(#paint20_linear)"/>
<path d="M242.783 372.558L7.44247 137.217C6.69777 139.801 6.00893 142.398 5.376 145.006L234.994 374.624C237.602 373.991 240.199 373.302 242.783 372.558Z" fill="url(#paint21_linear)"/>
<path d="M227.364 376.31L3.6896 152.636C3.13408 155.419 2.64132 158.212 2.21129 161.013L218.987 377.789C221.788 377.359 224.581 376.866 227.364 376.31Z" fill="url(#paint22_linear)"/>
<path d="M210.753 378.87L1.12993 169.247C0.799792 172.269 0.54198 175.298 0.356554 178.33L201.67 379.643C204.702 379.458 207.731 379.2 210.753 378.87Z" fill="url(#paint23_linear)"/>
<path d="M192.692 379.981L0.0189988 187.308C-0.0278155 190.633 0.0121012 193.96 0.13881 197.283L182.717 379.861C186.04 379.988 189.367 380.028 192.692 379.981Z" fill="url(#paint24_linear)"/>
<path d="M172.761 379.221L0.778946 207.239C1.11812 210.984 1.5681 214.721 2.1288 218.445L161.555 377.871C165.279 378.432 169.016 378.882 172.761 379.221Z" fill="url(#paint25_linear)"/>
<path d="M150.17 375.801L4.19877 229.83C5.14122 234.247 6.24235 238.636 7.50209 242.99L137.01 372.498C141.364 373.758 145.753 374.859 150.17 375.801Z" fill="url(#paint26_linear)"/>
<path d="M123.066 367.87L12.1305 256.934C14.3476 262.836 16.8687 268.651 19.6937 274.353L105.647 360.306C111.349 363.131 117.164 365.652 123.066 367.87Z" fill="url(#paint27_linear)"/>
<path d="M83.2304 347.205L32.7949 296.77C39.4119 306.489 47.0301 315.731 55.6497 324.35C64.2693 332.97 73.5111 340.588 83.2304 347.205Z" fill="url(#paint28_linear)"/>
</g>
<defs>
<linearGradient id="paint0_linear" x1="323.105" y1="324.903" x2="52.6364" y2="54.434" gradientUnits="userSpaceOnUse">
<stop stop-color="white"/>
<stop offset="1" stop-color="white" stop-opacity="0"/>
</linearGradient>
<linearGradient id="paint1_linear" x1="323.105" y1="324.903" x2="52.6364" y2="54.434" gradientUnits="userSpaceOnUse">
<stop stop-color="white"/>
<stop offset="1" stop-color="white" stop-opacity="0"/>
</linearGradient>
<linearGradient id="paint2_linear" x1="323.105" y1="324.903" x2="52.6364" y2="54.434" gradientUnits="userSpaceOnUse">
<stop stop-color="white"/>
<stop offset="1" stop-color="white" stop-opacity="0"/>
</linearGradient>
<linearGradient id="paint3_linear" x1="323.105" y1="324.903" x2="52.6364" y2="54.434" gradientUnits="userSpaceOnUse">
<stop stop-color="white"/>
<stop offset="1" stop-color="white" stop-opacity="0"/>
</linearGradient>
<linearGradient id="paint4_linear" x1="323.105" y1="324.903" x2="52.6364" y2="54.434" gradientUnits="userSpaceOnUse">
<stop stop-color="white"/>
<stop offset="1" stop-color="white" stop-opacity="0"/>
</linearGradient>
<linearGradient id="paint5_linear" x1="323.105" y1="324.903" x2="52.6364" y2="54.434" gradientUnits="userSpaceOnUse">
<stop stop-color="white"/>
<stop offset="1" stop-color="white" stop-opacity="0"/>
</linearGradient>
<linearGradient id="paint6_linear" x1="323.105" y1="324.903" x2="52.6364" y2="54.434" gradientUnits="userSpaceOnUse">
<stop stop-color="white"/>
<stop offset="1" stop-color="white" stop-opacity="0"/>
</linearGradient>
<linearGradient id="paint7_linear" x1="323.105" y1="324.903" x2="52.6364" y2="54.434" gradientUnits="userSpaceOnUse">
<stop stop-color="white"/>
<stop offset="1" stop-color="white" stop-opacity="0"/>
</linearGradient>
<linearGradient id="paint8_linear" x1="323.105" y1="324.903" x2="52.6364" y2="54.434" gradientUnits="userSpaceOnUse">
<stop stop-color="white"/>
<stop offset="1" stop-color="white" stop-opacity="0"/>
</linearGradient>
<linearGradient id="paint9_linear" x1="323.105" y1="324.903" x2="52.6364" y2="54.434" gradientUnits="userSpaceOnUse">
<stop stop-color="white"/>
<stop offset="1" stop-color="white" stop-opacity="0"/>
</linearGradient>
<linearGradient id="paint10_linear" x1="323.105" y1="324.903" x2="52.6364" y2="54.434" gradientUnits="userSpaceOnUse">
<stop stop-color="white"/>
<stop offset="1" stop-color="white" stop-opacity="0"/>
</linearGradient>
<linearGradient id="paint11_linear" x1="323.105" y1="324.903" x2="52.6364" y2="54.434" gradientUnits="userSpaceOnUse">
<stop stop-color="white"/>
<stop offset="1" stop-color="white" stop-opacity="0"/>
</linearGradient>
<linearGradient id="paint12_linear" x1="323.105" y1="324.903" x2="52.6364" y2="54.434" gradientUnits="userSpaceOnUse">
<stop stop-color="white"/>
<stop offset="1" stop-color="white" stop-opacity="0"/>
</linearGradient>
<linearGradient id="paint13_linear" x1="323.105" y1="324.903" x2="52.6364" y2="54.434" gradientUnits="userSpaceOnUse">
<stop stop-color="white"/>
<stop offset="1" stop-color="white" stop-opacity="0"/>
</linearGradient>
<linearGradient id="paint14_linear" x1="323.105" y1="324.903" x2="52.6364" y2="54.434" gradientUnits="userSpaceOnUse">
<stop stop-color="white"/>
<stop offset="1" stop-color="white" stop-opacity="0"/>
</linearGradient>
<linearGradient id="paint15_linear" x1="323.105" y1="324.903" x2="52.6364" y2="54.434" gradientUnits="userSpaceOnUse">
<stop stop-color="white"/>
<stop offset="1" stop-color="white" stop-opacity="0"/>
</linearGradient>
<linearGradient id="paint16_linear" x1="323.105" y1="324.903" x2="52.6364" y2="54.434" gradientUnits="userSpaceOnUse">
<stop stop-color="white"/>
<stop offset="1" stop-color="white" stop-opacity="0"/>
</linearGradient>
<linearGradient id="paint17_linear" x1="323.105" y1="324.903" x2="52.6364" y2="54.434" gradientUnits="userSpaceOnUse">
<stop stop-color="white"/>
<stop offset="1" stop-color="white" stop-opacity="0"/>
</linearGradient>
<linearGradient id="paint18_linear" x1="323.105" y1="324.903" x2="52.6364" y2="54.434" gradientUnits="userSpaceOnUse">
<stop stop-color="white"/>
<stop offset="1" stop-color="white" stop-opacity="0"/>
</linearGradient>
<linearGradient id="paint19_linear" x1="323.105" y1="324.903" x2="52.6364" y2="54.434" gradientUnits="userSpaceOnUse">
<stop stop-color="white"/>
<stop offset="1" stop-color="white" stop-opacity="0"/>
</linearGradient>
<linearGradient id="paint20_linear" x1="323.105" y1="324.903" x2="52.6364" y2="54.434" gradientUnits="userSpaceOnUse">
<stop stop-color="white"/>
<stop offset="1" stop-color="white" stop-opacity="0"/>
</linearGradient>
<linearGradient id="paint21_linear" x1="323.105" y1="324.903" x2="52.6364" y2="54.434" gradientUnits="userSpaceOnUse">
<stop stop-color="white"/>
<stop offset="1" stop-color="white" stop-opacity="0"/>
</linearGradient>
<linearGradient id="paint22_linear" x1="323.105" y1="324.903" x2="52.6364" y2="54.434" gradientUnits="userSpaceOnUse">
<stop stop-color="white"/>
<stop offset="1" stop-color="white" stop-opacity="0"/>
</linearGradient>
<linearGradient id="paint23_linear" x1="323.105" y1="324.903" x2="52.6364" y2="54.434" gradientUnits="userSpaceOnUse">
<stop stop-color="white"/>
<stop offset="1" stop-color="white" stop-opacity="0"/>
</linearGradient>
<linearGradient id="paint24_linear" x1="323.105" y1="324.903" x2="52.6364" y2="54.434" gradientUnits="userSpaceOnUse">
<stop stop-color="white"/>
<stop offset="1" stop-color="white" stop-opacity="0"/>
</linearGradient>
<linearGradient id="paint25_linear" x1="323.105" y1="324.903" x2="52.6364" y2="54.434" gradientUnits="userSpaceOnUse">
<stop stop-color="white"/>
<stop offset="1" stop-color="white" stop-opacity="0"/>
</linearGradient>
<linearGradient id="paint26_linear" x1="323.105" y1="324.903" x2="52.6364" y2="54.434" gradientUnits="userSpaceOnUse">
<stop stop-color="white"/>
<stop offset="1" stop-color="white" stop-opacity="0"/>
</linearGradient>
<linearGradient id="paint27_linear" x1="323.105" y1="324.903" x2="52.6364" y2="54.434" gradientUnits="userSpaceOnUse">
<stop stop-color="white"/>
<stop offset="1" stop-color="white" stop-opacity="0"/>
</linearGradient>
<linearGradient id="paint28_linear" x1="323.105" y1="324.903" x2="52.6364" y2="54.434" gradientUnits="userSpaceOnUse">
<stop stop-color="white"/>
<stop offset="1" stop-color="white" stop-opacity="0"/>
</linearGradient>
</defs>
</svg>
