<svg width="137" height="115" viewBox="0 0 137 115" fill="none" xmlns="http://www.w3.org/2000/svg">
<g clip-path="url(#clip0)">
<path d="M4.95071 13.833C-2.04935 15.833 0.609851 27.5 10.1099 20" stroke="black"/>
<path d="M17.9493 17.333C20.4495 22.333 12.6089 28.5 11.1085 20" stroke="black"/>
<path d="M6.94977 2.83306L6.59622 3.18661L6.94977 2.83306ZM1.94977 5.33306L2.44006 5.43112L1.94977 5.33306ZM9.00499 14.83C9.27944 14.7995 9.47721 14.5523 9.44671 14.2778C9.41622 14.0034 9.16901 13.8056 8.89456 13.8361L9.00499 14.83ZM13.1089 12.5C13.1089 11.7819 12.8852 10.9523 12.5397 10.0988C12.1911 9.23777 11.7038 8.31655 11.1427 7.40456C10.0217 5.58233 8.58314 3.7593 7.30332 2.4795L6.59622 3.18661C7.81647 4.40684 9.20748 6.1673 10.291 7.92854C10.8322 8.80828 11.2908 9.6788 11.6128 10.474C11.9377 11.2768 12.1089 11.9681 12.1089 12.5H13.1089ZM7.30332 2.4795C7.01753 2.19371 6.58983 1.71444 6.15471 1.33429C5.72097 0.955353 5.16283 0.563113 4.5365 0.506871C3.84083 0.444401 3.2212 0.801104 2.71929 1.56291C2.23168 2.30302 1.81022 3.4814 1.45948 5.23499L2.44006 5.43112C2.78273 3.71784 3.17363 2.69094 3.55434 2.11308C3.92076 1.55692 4.22543 1.48296 4.44706 1.50286C4.73804 1.52899 5.09019 1.73216 5.49678 2.08737C5.90197 2.44138 6.24462 2.83502 6.59622 3.18661L7.30332 2.4795ZM1.45948 5.23499C0.693974 9.06236 1.30186 11.6423 2.8462 13.1866C4.37687 14.7173 6.68827 15.0874 9.00499 14.83L8.89456 13.8361C6.71127 14.0787 4.77264 13.6988 3.5533 12.4795C2.34762 11.2738 1.70551 9.1037 2.44006 5.43112L1.45948 5.23499Z" fill="black"/>
<path d="M23.4513 5.83307L23.6106 6.307L23.4513 5.83307ZM25.4516 9.833L24.992 9.63605L25.4516 9.833ZM14.4918 16.0294C14.383 15.7756 14.5006 15.4816 14.7544 15.3729C15.0082 15.2641 15.3021 15.3817 15.4109 15.6355L14.4918 16.0294ZM13.663 12.2776C13.9782 11.6432 14.5383 10.9705 15.2212 10.3122C15.9101 9.64817 16.75 8.97416 17.6544 8.34008C19.4585 7.07516 21.5585 5.94197 23.2919 5.35915L23.6106 6.307C21.9927 6.85099 19.9786 7.93178 18.2284 9.15888C17.3556 9.77081 16.5583 10.4123 15.9152 11.0322C15.2662 11.6578 14.7996 12.2373 14.5586 12.7224L13.663 12.2776ZM23.2919 5.35915C23.4828 5.29498 23.7031 5.20229 23.9516 5.0943C24.1931 4.98933 24.4615 4.86975 24.7225 4.76638C24.9832 4.66309 25.2586 4.56688 25.523 4.51113C25.7802 4.4569 26.0782 4.4294 26.3598 4.51317C26.6723 4.60611 26.9184 4.82282 27.0514 5.15262C27.1727 5.45351 27.1893 5.82047 27.1417 6.23142C27.0463 7.05567 26.6643 8.27258 25.9112 10.03L24.992 9.63605C25.7389 7.89322 26.0706 6.78822 26.1483 6.11642C26.1874 5.77935 26.1554 5.60475 26.1239 5.52649C26.104 5.47714 26.093 5.47711 26.0747 5.47167C26.0256 5.45707 25.9193 5.44956 25.7293 5.48961C25.5466 5.52815 25.332 5.60053 25.0907 5.6961C24.8497 5.79157 24.604 5.90108 24.3502 6.01142C24.1033 6.11872 23.847 6.22753 23.6106 6.307L23.2919 5.35915ZM25.9112 10.03C24.376 13.612 22.0556 16.0882 19.8679 17.2149C18.7762 17.7772 17.6778 18.0226 16.7139 17.8481C15.7236 17.6688 14.931 17.0542 14.4918 16.0294L15.4109 15.6355C15.7217 16.3607 16.2417 16.7464 16.8921 16.8641C17.5689 16.9866 18.4392 16.826 19.41 16.3259C21.3475 15.328 23.5271 13.0543 24.992 9.63605L25.9112 10.03Z" fill="black"/>
<path d="M4.80945 7.22361C4.93294 6.97662 4.83283 6.67628 4.58584 6.55279C4.33885 6.42929 4.03852 6.5294 3.91502 6.77639L4.80945 7.22361ZM4.9718 11.8123C5.14431 12.028 5.45895 12.0629 5.67458 11.8904C5.89021 11.7179 5.92518 11.4033 5.75267 11.1877L4.9718 11.8123ZM3.91502 6.77639C3.49105 7.62433 3.25482 9.66612 4.9718 11.8123L5.75267 11.1877C4.26966 9.33388 4.56675 7.709 4.80945 7.22361L3.91502 6.77639Z" fill="black"/>
<path d="M20.6933 11.7226C20.8465 11.4929 21.157 11.4308 21.3867 11.584C21.6165 11.7372 21.6786 12.0476 21.5254 12.2774L20.6933 11.7226ZM18.2675 14.9743C18.0055 15.0617 17.7224 14.9201 17.635 14.6581C17.5477 14.3961 17.6893 14.113 17.9513 14.0257L18.2675 14.9743ZM21.5254 12.2774C21.0241 13.0293 20.6167 13.5808 20.1223 14.0046C19.6171 14.4377 19.0503 14.7134 18.2675 14.9743L17.9513 14.0257C18.6684 13.7866 19.1017 13.5623 19.4715 13.2454C19.8521 12.9192 20.1947 12.4707 20.6933 11.7226L21.5254 12.2774Z" fill="black"/>
<path d="M9.61035 22.5C9.34585 22.1472 11.2844 15.4997 12.4511 14.333H13.4512C14.4512 16.833 9.71688 22.6421 9.61035 22.5Z" fill="white" stroke="black" stroke-width="0.8"/>
<path d="M14.5831 12.7998C14.4679 13.3363 14.2033 13.7719 13.8871 14.0468C13.5711 14.3217 13.2258 14.4213 12.9168 14.355C12.6078 14.2887 12.3339 14.0561 12.1585 13.6757C11.983 13.2952 11.9205 12.7894 12.0357 12.2529C12.1508 11.7164 12.4155 11.2808 12.7316 11.0059C13.0477 10.731 13.3929 10.6314 13.7019 10.6977C14.011 10.764 14.2849 10.9966 14.4603 11.377C14.6357 11.7575 14.6983 12.2633 14.5831 12.7998Z" fill="white" stroke="black" stroke-width="0.8"/>
<path d="M77.1094 64.5L78 66.4999C73.5999 65.6999 69.9999 69.1665 69.5 70.4999L68.6094 68.5C69.0094 68.5 71.4432 65.3333 71.6099 64.5C73.6099 65.7 75.776 65.1667 77.1094 64.5Z" fill="black"/>
<path fill-rule="evenodd" clip-rule="evenodd" d="M126.396 55.8524C127.632 55.7634 129.333 56.1083 130.995 57.9901C131.475 57.1022 131.847 56.2015 132.124 55.2842C131.29 54.0736 129.012 52.4484 126.65 52.968C126.622 54.1435 126.941 54.9988 126.396 55.8524ZM124.618 48.6941C125.9 47.9319 128.609 46.566 130.995 47.062C130.271 45.5457 128.816 44.0477 127.634 42.6324C126.039 43.1734 124.369 44.5008 122.798 46.4574C123.486 47.1378 124.091 47.8956 124.618 48.6941ZM117.525 43.9233C118.076 42.7072 119.648 40.077 123.304 39.234C122.645 38.709 121.974 38.697 121.236 38.2026C120.576 37.749 119.879 37.8068 119.267 37.6851C117.876 38.7079 115.846 40.0015 116.004 43.6892C116.135 43.7154 116.261 43.7404 116.415 43.7537C116.787 43.7839 117.164 43.8416 117.525 43.9233Z" fill="#121212"/>
<path d="M97.0679 67.0256C101.212 68.9634 103.44 78.9627 102.966 73.0558C102.615 68.5741 101.173 65.974 99.9917 64.6442C99.9649 64.7421 97.8597 66.1938 97.0679 67.0256Z" fill="#121212"/>
<path fill-rule="evenodd" clip-rule="evenodd" d="M130.109 60.7076C127.379 59.1075 122.819 56.1404 119.187 56.2777C119.227 56.2951 125.409 58.9148 127.011 64.4081C128.609 69.9193 127.413 74.1554 129.13 75.5379C130.845 76.9176 128.72 74.0472 130.109 69.6209C131.189 66.187 131.663 63.4681 130.109 60.7076Z" fill="#121212"/>
<path d="M115.214 81.7921C113.445 80.69 110.108 75.4874 108.982 66.7336C108.436 62.491 106.717 60.8314 105.405 59.7229L107.434 58.1894C108.943 58.2865 109.932 56.4713 111.803 56.2775C112.197 58.4727 113.791 62.5612 112.504 67.4286C110.752 74.1371 116.995 82.8874 115.214 81.7921Z" fill="#121212"/>
<path fill-rule="evenodd" clip-rule="evenodd" d="M117.842 59.2018C117.842 59.2018 118.932 62.2259 117.435 66.7125C115.944 71.184 118.349 76.0569 119.937 77.7575C121.526 79.4581 118.515 74.2958 120.636 69.276C122.766 64.2513 118.534 58.2689 118.113 58.1713C117.688 58.0653 117.462 58.5624 117.842 59.2018Z" fill="#121212"/>
<path fill-rule="evenodd" clip-rule="evenodd" d="M115.742 104.017C125.406 103.547 127.425 106.331 121.55 106.48C119.241 106.542 117.254 106.542 115.773 106.578C115.747 106.415 115.737 106.266 115.711 106.107C115.65 105.314 115.966 104.576 115.742 104.017ZM116.033 107.961C120.109 108.484 126.756 108.594 122.122 109.786C119.985 110.332 118.42 110.468 117.251 110.394C116.731 109.799 116.309 109.004 116.033 107.961Z" fill="#121212"/>
<path fill-rule="evenodd" clip-rule="evenodd" d="M76.0492 102.574C82.7944 103.071 84.2981 106.127 80.297 105.643C78.4816 105.419 76.9683 105.169 75.9485 105.059C75.9745 104.179 76.0102 103.308 76.0492 102.574ZM75.9258 106.328C78.4719 107.361 83.7882 108.267 80.349 108.998C78.027 109.482 76.7442 109.108 75.9875 108.65C75.9355 107.968 75.9258 107.16 75.9258 106.328Z" fill="#121212"/>
<path d="M75.9062 99.1457C76.0362 98.2363 76.1227 97.63 76.0686 97.3594C77.2053 97.3594 78.5584 97.4135 79.3162 97.6842C84.6748 99.5979 80.6153 101.256 78.9915 101.256C78.4719 101.256 76.9347 101.202 76.231 101.257C76.231 100.607 75.9604 99.5787 75.9062 99.1457Z" fill="#121212"/>
<path fill-rule="evenodd" clip-rule="evenodd" d="M50.5984 51.3192C48.5456 51.7798 47.4714 54.8166 48.1997 58.1089C48.9405 61.3973 51.202 63.6951 53.2642 63.2316C55.3293 62.7775 56.4066 59.7397 55.6658 56.4513C54.9416 53.1611 52.6666 50.8641 50.5984 51.3192Z" fill="#121212"/>
<path fill-rule="evenodd" clip-rule="evenodd" d="M76.2742 40.7841C78.0581 39.6613 80.96 41.0685 82.7538 43.9305C84.5383 46.7955 84.5394 50.021 82.7558 51.1335C80.9595 52.2602 78.0607 50.852 76.2772 47.9902C74.4803 45.1291 74.481 41.9098 76.2742 40.7841Z" fill="#121212"/>
<path fill-rule="evenodd" clip-rule="evenodd" d="M60.7951 57.9429C59.6336 60.026 65.3384 65.3945 70.5131 63.2789C75.6716 61.1546 75.9641 53.3251 73.6819 52.6574C70.5983 51.7613 62.3527 55.1502 60.7951 57.9429Z" fill="#121212"/>
<path fill-rule="evenodd" clip-rule="evenodd" d="M58.5447 34.1337C57.1762 42.3741 49.7274 41.3452 47.0861 46.5634C46.11 48.4837 45.6441 44.8098 49.1528 41.7306C52.6614 38.6513 57.1329 34.4624 57.1232 30.6617C59.7888 33.3714 65.9056 33.2143 70.5783 32.9379C75.2365 32.6693 77.491 35.608 75.439 34.9342C69.898 33.0687 65.6317 38.7221 58.5447 34.1337Z" fill="#121212"/>
<path fill-rule="evenodd" clip-rule="evenodd" d="M56.0631 28.0755C56.0631 28.0755 55.0679 30.5655 48.9783 34.258C42.8887 37.9504 41.0681 44.5902 41.4325 48.9103C41.7883 53.2466 38.3142 44.2213 42.1852 36.5984C46.0687 28.9717 54.0718 28.1417 54.509 24.3062C57.5157 26.7262 63.804 21.6945 71.9157 24.3987C80.0408 27.1021 83.8955 35.9658 81.1142 32.6256C78.3273 29.3006 72.3639 25.8532 65.4368 27.5036C58.5118 29.15 56.0631 28.0755 56.0631 28.0755Z" fill="#121212"/>
<path d="M68.6094 69.0005C68.6094 74.0005 80.1094 72.5005 77.1094 65.0005" stroke="black"/>
<path d="M124.442 58.1863C130.186 55.4919 124.864 44.8746 116.312 44.1085C110.998 43.6252 113.36 35.7414 121.101 38.0397C132.062 43.1241 135.75 52.2702 129.821 60.3975" stroke="black"/>
<path d="M129.998 99.0005C129.862 102.154 128.142 110.358 125.469 111.254C122.787 112.148 116.411 113.801 115.716 106.11C115.716 104.51 117.216 99.0958 112.787 98.1115C106.88 96.799 98.0211 91.221 104.912 80.3931" stroke="black" stroke-linecap="round" stroke-linejoin="round"/>
<path d="M66.9746 95.4126C66.9746 95.4126 67.8129 97.0075 67.8746 101.818C67.9493 106.625 67.8486 108.476 68.5339 109.298C69.1531 110.041 73.5118 110.786 76.2808 109.792" stroke="black"/>
<path d="M61.127 81.3784C61.3598 88.6824 64.1714 97.0018 75.1696 99.0596C75.1696 99.0596 76.1277 99.3324 76.1277 100.524C76.1277 101.729 75.6178 108.452 76.2382 110.242C76.8488 112.019 81.7921 113.052 85.1601 111.746C88.5152 110.44 90.5029 105.435 91.2987 102.96C91.7351 101.672 93.5924 99.0959 97.5298 99.0959C98.5142 99.0959 103.436 99.0959 107.866 96.1428" stroke="black"/>
<path d="M61.7715 86.5221C61.8462 86.4961 66.1821 85.132 68.4946 87.3795C70.8299 89.6401 72.4084 92.8587 74.7436 94.3755C76.4195 95.4571 76.3708 97.9417 76.2214 99.2474C75.8739 99.1856 75.5263 99.1239 75.1658 99.0622M103.793 104.96L103.793 104.973" stroke="black"/>
<path d="M116.232 108.936C113.772 108.936 106.876 108.85 109.671 103.762C110.213 102.776 111.517 100.185 111.311 97.6195" stroke="black"/>
<path d="M74.4999 22.9998C76.0493 8.92899 103.801 19.506 87.9518 34.8052" stroke="black"/>
<path d="M38.9995 39.5C27.5006 27.5025 13.332 57.194 38.0465 55.7966" stroke="black"/>
<path d="M77.9989 25.5001C78.3338 15.7326 97.0752 22.6992 85.7669 32.7398" stroke="black"/>
<path d="M38.4995 44.0002C31.0152 33.1595 20.1586 54.8175 38.1184 52.7284" stroke="black"/>
<path d="M54.2035 23.7189L54.2036 23.7189L54.2037 23.7188L54.2389 23.7074L54.2721 23.6909L54.2722 23.6908L54.2723 23.6908L54.2732 23.6903L54.2781 23.6879L54.3 23.6772C54.3199 23.6675 54.3503 23.6529 54.3908 23.6338C54.4718 23.5955 54.5931 23.5394 54.7515 23.4692C55.0683 23.3287 55.5329 23.1321 56.1192 22.9103C57.2925 22.4663 58.9486 21.9228 60.878 21.5249C64.749 20.7263 69.6516 20.5272 73.9696 22.8091C77.1726 24.5039 79.7389 27.0957 82.555 29.9399L82.593 29.9783C85.41 32.8232 88.4601 35.8936 92.5819 38.3959C94.9767 39.8542 97.2338 41.6062 98.7728 44.0636C100.976 47.5963 101.422 51.1411 100.684 54.5595C99.9424 57.993 98.0004 61.3236 95.3869 64.3834C90.1562 70.5075 82.3285 75.4388 76.5092 77.8166L76.5087 77.8168C70.6977 80.1988 61.6511 82.1691 53.6117 81.4724C45.5703 80.7755 38.7112 77.4426 36.885 69.3821C36.2464 66.5494 36.6159 63.726 37.2952 61.0198L37.2953 61.0194C38.4651 56.3451 38.4737 52.023 38.4747 48.0259L38.4748 47.9687C38.4758 43.9741 38.4768 40.3353 39.5599 36.8858C41.0243 32.2375 44.6542 28.9459 47.9732 26.8032C49.6274 25.7353 51.1897 24.9624 52.3381 24.4567C52.912 24.2041 53.3814 24.0186 53.706 23.8967C53.8683 23.8358 53.9943 23.7908 54.0789 23.7613C54.1212 23.7466 54.1532 23.7357 54.1742 23.7287L54.1973 23.7209L54.2026 23.7192L54.2035 23.7189Z" stroke="black"/>
<path d="M105.491 59.8114L105.858 60.1519L105.491 59.8114ZM134.898 77.2121L134.41 77.1014L134.898 77.2121ZM129.527 99.2047C129.588 99.474 129.856 99.6428 130.125 99.5817C130.394 99.5206 130.563 99.2528 130.502 98.9835L129.527 99.2047ZM92.4138 67.5629C94.9946 68.6599 97.5263 67.6631 99.7684 66.0332C102.012 64.4021 104.105 62.0366 105.858 60.1519L105.125 59.4709C103.339 61.3924 101.325 63.665 99.1804 65.2243C97.0338 66.7848 94.894 67.5305 92.805 66.6426L92.4138 67.5629ZM105.858 60.1519C107.841 58.0183 110.874 56.7852 114.29 56.4646C117.702 56.1444 121.45 56.7403 124.806 58.2139C128.162 59.6871 131.102 62.0265 132.932 65.1744C134.758 68.3141 135.501 72.2939 134.41 77.1014L135.385 77.3227C136.528 72.2871 135.759 68.0459 133.797 64.6718C131.84 61.3059 128.717 58.8389 125.208 57.2982C121.7 55.7579 117.781 55.1325 114.197 55.469C110.616 55.8051 107.324 57.1067 105.125 59.4709L105.858 60.1519ZM134.41 77.1014C133.463 81.2723 131.744 84.2418 130.459 87.5476C129.18 90.8358 128.415 94.3021 129.527 99.2047L130.502 98.9835C129.445 94.3237 130.164 91.0645 131.391 87.91C132.611 84.7732 134.418 81.5828 135.385 77.3227L134.41 77.1014Z" fill="black"/>
<path d="M71.1784 63.7651L71.6316 63.5537L70.7253 63.9765L71.1784 63.7651ZM63.4977 67.2148C63.3237 67.0003 63.0089 66.9675 62.7944 67.1414C62.5799 67.3154 62.5471 67.6303 62.7211 67.8447L63.4977 67.2148ZM79.7384 59.9053C79.6858 59.6342 79.4234 59.4571 79.1523 59.5096C78.8812 59.5622 78.7041 59.8246 78.7567 60.0957L79.7384 59.9053ZM70.7253 63.9765C70.9334 64.4224 70.8823 65.1049 70.5118 65.8882C70.1493 66.6546 69.5202 67.4252 68.745 67.9842C67.9702 68.543 67.083 68.8675 66.1982 68.8075C65.3274 68.7485 64.3882 68.3126 63.4977 67.2148L62.7211 67.8447C63.7579 69.1229 64.9403 69.7245 66.1305 69.8052C67.3067 69.885 68.42 69.4516 69.3299 68.7953C70.2396 68.1393 70.9797 67.2378 71.4158 66.3158C71.8439 65.4107 72.021 64.3884 71.6316 63.5537L70.7253 63.9765ZM70.7253 63.9765C71.1147 64.8112 72.0119 65.3323 72.9805 65.5858C73.9673 65.8439 75.1336 65.856 76.2207 65.5804C77.3082 65.3047 78.3556 64.7301 79.0502 63.7776C79.7531 62.8136 80.0517 61.521 79.7384 59.9053L78.7567 60.0957C79.0258 61.4834 78.7564 62.4832 78.2422 63.1884C77.7197 63.905 76.901 64.3763 75.975 64.6111C75.0486 64.8459 74.0539 64.8329 73.2337 64.6183C72.3953 64.399 71.8396 63.9996 71.6316 63.5537L70.7253 63.9765ZM70.1182 62.7173L71.592 65.7761L72.4929 65.3421L71.0191 62.2832L70.1182 62.7173Z" fill="black"/>
<path fill-rule="evenodd" clip-rule="evenodd" d="M76.8224 42.3571C76.1325 42.6469 75.829 43.524 76.1535 44.3185C76.4771 45.1099 77.3099 45.5228 78.0161 45.2417C78.7185 44.948 79.0211 44.0678 78.6975 43.2764C78.3708 42.486 77.5286 42.0759 76.8224 42.3571Z" fill="white"/>
<path fill-rule="evenodd" clip-rule="evenodd" d="M49.6143 53.7189C48.912 54.0126 48.6084 54.8897 48.933 55.6842C49.2565 56.4755 50.0894 56.8885 50.7956 56.6073C51.4979 56.3137 51.8015 55.4365 51.4769 54.642C51.1523 53.8476 50.3102 53.4375 49.6143 53.7189Z" fill="white"/>
</g>
<defs>
<clipPath id="clip0">
<rect width="137" height="115" fill="white"/>
</clipPath>
</defs>
</svg>
