<svg width="96" height="101" viewBox="0 0 96 101" fill="none" xmlns="http://www.w3.org/2000/svg">
<path fill-rule="evenodd" clip-rule="evenodd" d="M84.3301 64.2257C85.4651 64.7701 86.7915 65.9316 87.3096 68.4293C88.1806 67.8882 88.9626 67.2811 89.6687 66.6113C89.5433 65.1232 88.9857 62.6485 86.6398 61.9161C86.0227 62.9389 85.2408 63.7473 84.3301 64.2257ZM88.2301 55.7752C89.7446 55.7488 92.3215 55.9897 94.1759 57.6296C94.3012 55.927 94.2155 54.1222 93.8855 52.2777C92.206 51.9511 90.124 51.9511 87.7517 52.8849C88.0157 53.8318 88.1674 54.8052 88.2301 55.7752ZM84.8745 47.1243C85.9733 46.3291 88.6855 44.8014 92.3347 45.9002C92.018 45.105 91.6649 44.2834 91.2624 43.475C90.9093 42.7425 90.4672 42.1618 89.9888 41.7461C88.2466 41.9474 85.3694 42.8184 83.6504 46.1509C83.7527 46.24 83.8517 46.3258 83.9803 46.4149C84.2938 46.6294 84.5974 46.8702 84.8745 47.1243Z" fill="#121212"/>
<path d="M52.2266 58.2078C54.84 62.0511 51.5961 71.941 54.2477 66.5358C56.2675 62.4394 56.031 58.9466 55.6892 57.1719C55.615 57.2435 53.3499 57.8923 52.2266 58.2078Z" fill="#121212"/>
<path fill-rule="evenodd" clip-rule="evenodd" d="M84.8467 68.1037C83.2927 65.2892 80.4287 63.1676 77.1853 61.4023C77.2117 61.4386 81.1876 65.8336 79.7358 71.4626C78.2708 77.1048 75.0274 80.1832 75.8094 82.2817C76.5913 84.3769 76.2251 80.7672 79.7358 77.6228C82.4612 75.1844 84.7709 71.3207 84.8467 68.1037Z" fill="#121212"/>
<path fill-rule="evenodd" clip-rule="evenodd" d="M39.7601 89.2695C46.6133 89.7744 48.1409 92.8792 44.0759 92.3876C42.2315 92.1599 40.6939 91.9058 39.6579 91.7937C39.6843 90.8995 39.7206 90.0152 39.7601 89.2695ZM39.6348 93.0838C42.2216 94.133 47.6229 95.0536 44.1287 95.796C41.7696 96.2876 40.4662 95.9082 39.6975 95.4429C39.6447 94.75 39.6348 93.9285 39.6348 93.0838Z" fill="#121212"/>
<path d="M60.4129 80.522C59.4395 78.6413 59.225 72.3656 62.7852 64.1366C64.5101 60.148 64.2818 56.8553 63.7109 55.2061L65.8675 55.8713C67.1351 56.7393 68.71 57.5412 70.4447 58.3431C69.6495 60.4647 69.15 62.9884 65.5007 66.5716C60.4888 71.5209 61.3994 82.4027 60.4129 80.522Z" fill="#121212"/>
<path fill-rule="evenodd" clip-rule="evenodd" d="M74.4307 62.1573C74.4307 62.1573 73.8137 65.3644 70.1777 68.5055C66.5548 71.6368 66.1259 77.1404 66.6307 79.4501C67.1355 81.7597 67.185 75.6886 71.6427 72.4056C76.1102 69.1226 75.5196 61.7019 75.2028 61.3984C74.8861 61.0849 74.4307 61.4017 74.4307 62.1573Z" fill="#121212"/>
<path fill-rule="evenodd" clip-rule="evenodd" d="M67.6934 90.8857C77.5127 90.4073 80.0369 93.169 74.068 93.3207C71.7221 93.3834 69.7028 93.3834 68.1982 93.4197C68.1718 93.2548 68.1619 93.103 68.1355 92.9413C68.0728 92.1362 67.921 91.4532 67.6934 90.8857ZM68.4621 94.8253C72.603 95.3565 79.3572 95.4687 74.6487 96.6796C72.4777 97.234 70.8873 97.3726 69.6995 97.2967C69.1715 96.6929 68.7426 95.8845 68.4621 94.8253Z" fill="#121212"/>
<path fill-rule="evenodd" clip-rule="evenodd" d="M34.3948 35.6869C32.6526 37.3532 36.5659 44.2327 42.1948 43.7279C47.8106 43.2099 50.4238 35.7364 48.4177 34.4133C45.7055 32.6316 36.7308 33.4532 34.3948 35.6869Z" fill="#121212"/>
<path fill-rule="evenodd" clip-rule="evenodd" d="M39.3054 12.0198C35.5307 19.5691 28.6413 16.3619 24.5367 20.615C23.0223 22.179 23.6657 18.4934 27.9715 16.5632C32.2774 14.633 37.8437 11.9175 38.9655 8.24512C40.7341 11.6535 46.6897 13.3198 51.2859 14.4416C55.8657 15.5668 57.169 19.0741 55.3872 17.8137C50.5897 14.3657 44.7859 18.5561 39.3054 12.0198Z" fill="#121212"/>
<path fill-rule="evenodd" clip-rule="evenodd" d="M38.7111 5.43138C38.7111 5.43138 37.0085 7.53978 30.0267 9.29513C23.0449 11.0505 19.3099 16.9203 18.3761 21.1998C17.4291 25.4925 16.7593 15.7457 22.7678 9.53598C28.7894 3.32629 36.7676 4.90346 38.3316 1.33008C40.5159 4.56031 48.0883 1.57095 55.1196 6.59282C62.164 11.618 63.2496 21.3219 61.5569 17.2701C59.8544 13.2314 55.1196 8.13039 47.9365 7.66516C40.7568 7.19663 38.7111 5.43138 38.7111 5.43138Z" fill="#121212"/>
<path fill-rule="evenodd" clip-rule="evenodd" d="M59.7795 28.6821C58.8985 25.3858 56.513 23.1653 54.4541 23.7196C52.3853 24.2739 51.4251 27.3821 52.3094 30.6783C53.1804 33.9712 55.5627 36.1918 57.6348 35.6375C59.6904 35.093 60.6505 31.9783 59.7795 28.6821ZM55.338 27.5699C55.2621 26.7087 55.8197 25.9532 56.5753 25.8773C57.3441 25.8146 58.037 26.458 58.1162 27.3159C58.1921 28.1737 57.6344 28.9326 56.8656 29.0085C56.0969 29.0712 55.4139 28.4278 55.338 27.5699Z" fill="#121212"/>
<path fill-rule="evenodd" clip-rule="evenodd" d="M22.1785 32.1008C22.4557 28.7056 24.3991 26.0924 26.5207 26.2574C28.6555 26.4323 30.17 29.326 29.8895 32.7179C29.6255 36.1131 27.6788 38.7263 25.5473 38.5514C23.4159 38.3864 21.9146 35.4961 22.1785 32.1008ZM26.0509 30.2364C25.975 29.3752 26.5326 28.6196 27.3014 28.5437C28.0603 28.4777 28.7532 29.1211 28.8291 29.9823C28.9049 30.8435 28.3473 31.5991 27.5785 31.675C26.8097 31.7376 26.1267 31.0942 26.0509 30.2364Z" fill="#121212"/>
<path d="M39.6133 85.7865C39.7453 84.8627 39.8332 84.2466 39.7782 83.9717C40.9331 83.9717 42.3078 84.0267 43.0777 84.3017C48.522 86.246 44.3976 87.9311 42.7478 87.9311C42.2199 87.9311 40.6581 87.8762 39.9432 87.9312C39.9432 87.2713 39.6683 86.2265 39.6133 85.7865Z" fill="#121212"/>
<path d="M81.6836 64.8363C88.1078 65.3543 91.1336 51.4009 83.9769 46.4153C79.5325 43.3104 88.131 37.0611 91.259 43.4754C96.6964 54.6146 94.6398 65.3171 85.3131 69.4973" stroke="black"/>
<path d="M30.541 81.9932C30.541 81.9932 31.3926 83.6135 31.4553 88.5001C31.5312 93.3833 31.4289 95.2641 32.1251 96.0989C32.7541 96.8537 37.1821 97.6113 39.9951 96.6015M52.9913 94.7724C52.9913 94.7724 53.0408 96.4123 54.7466 96.8313C56.4492 97.2471 60.2865 97.323 61.438 96.3397C62.4162 95.5106 65.7765 91.3127 66.814 89.314" stroke="black"/>
<path d="M25.5106 58.236C24.0715 64.9977 22.0491 82.552 38.8645 85.6981C38.8645 85.6981 39.8378 85.9753 39.8378 87.1862C39.8378 88.4103 39.3198 95.2403 39.95 97.0583C40.5703 98.8632 45.5922 99.9124 49.0138 98.586C52.4222 97.2596 54.4415 92.1751 55.2499 89.6608C55.7415 88.12 56.2958 87.7042 56.6654 87.6283L57.0316 87.6415C64.5182 87.9682 67.7089 88.0441 68.1411 92.9439C68.8472 100.757 75.3242 99.0777 78.0496 98.1703C80.7651 97.2596 83.2001 89.5223 83.3387 86.3184C83.3387 86.3184 89.1953 78.9341 85.4339 69.316C82.2645 61.2118 68.4603 58.4901 62.2997 54.2656" stroke="black"/>
<path d="M58.3906 6.10444C64.1182 -6.99556 87.4479 11.3154 67.4944 21.383" stroke="black"/>
<path d="M18.6626 11.0852C11.1221 -3.8657 -11.3185 20.8696 13.0534 26.8104" stroke="black"/>
<path d="M60.793 9.4035C64.0342 0.0782698 79.947 12.425 66.0103 18.7619" stroke="black"/>
<path d="M16.999 15.5C12.9978 2.82191 -3.95295 20.5866 14.0425 23.8932" stroke="black"/>
<path d="M25.2539 72.9621C25.3298 72.9357 29.7347 71.5499 32.0839 73.8332C34.4563 76.1296 36.0598 79.3994 38.4322 80.9403C40.1347 82.0391 40.0853 84.5632 39.9335 85.8896C39.5804 85.8269 39.2274 85.7642 38.8611 85.7015M67.9431 91.6935V91.7067" stroke="black" stroke-width="0.939947"/>
<path d="M42.0605 47.1318C42.0606 49.9883 34.5605 53.1318 33.0605 47.1318" stroke="black" stroke-linecap="round" stroke-linejoin="round"/>
<path d="M42.0605 47.1318C42.0604 49.9883 49.5605 53.1318 51.0605 47.1318" stroke="black" stroke-linecap="round" stroke-linejoin="round"/>
<path d="M42.0605 43.4033V46.9033" stroke="black"/>
<path d="M38.2542 0.780624L38.291 0.780004L38.3273 0.773983L38.3274 0.773964L38.3274 0.773955L38.3285 0.773786L38.334 0.772887L38.3585 0.769026C38.3807 0.765577 38.4146 0.76044 38.4596 0.753957C38.5496 0.740992 38.684 0.72265 38.8585 0.701685C39.2076 0.659748 39.7168 0.607358 40.3514 0.566484C41.6213 0.484683 43.3888 0.449306 45.3773 0.6346C49.3672 1.00638 54.1763 2.25959 57.6739 5.72992C60.2671 8.30555 61.9745 11.5573 63.8478 15.1254L63.8732 15.1737C65.7473 18.7431 67.7795 22.5979 71.0199 26.2216C72.9017 28.3317 74.5617 30.6839 75.3143 33.5038C76.3871 37.5536 75.7551 41.0981 74.0139 44.1729C72.2648 47.2616 69.3834 49.8972 65.9332 52.074C59.0279 56.4305 49.9656 58.8729 43.615 59.448L43.6144 59.448C37.2707 60.0296 27.9169 59.2612 20.3392 56.2211C16.553 54.7022 13.2436 52.6294 10.9668 49.9072C8.70019 47.1972 7.44058 43.8255 7.76816 39.6501C8.00012 36.7344 9.20551 34.1245 10.6758 31.7186L10.676 31.7183C13.2115 27.5627 14.517 23.4041 15.7178 19.5557L15.7352 19.5001C16.935 15.6547 18.0282 12.1511 20.1128 9.14827C22.9274 5.10178 27.4332 3.00084 31.292 1.9152C33.2151 1.37413 34.9607 1.09011 36.225 0.941536C36.8568 0.867298 37.3673 0.827006 37.7184 0.805304C37.8939 0.794455 38.0295 0.788257 38.1204 0.784785C38.1658 0.78305 38.2001 0.781996 38.2225 0.781383L38.2473 0.780765L38.253 0.780647L38.254 0.780627L38.2541 0.780626L38.2542 0.780624Z" stroke="black"/>
</svg>
