<svg width="164" height="95" viewBox="0 0 164 95" fill="none" xmlns="http://www.w3.org/2000/svg">
<path d="M108.001 76.5L108.001 80.5C103.002 79.5 99.0016 78 108.001 76.5Z" fill="black"/>
<path d="M144 78.5C144 78.5182 143.989 78.6257 143.752 78.8141C143.523 78.9964 143.154 79.1944 142.631 79.3957C141.59 79.7963 140.055 80.1668 138.122 80.4814C134.266 81.1092 128.919 81.5 123 81.5C117.081 81.5 111.734 81.1092 107.878 80.4814C105.945 80.1668 104.41 79.7963 103.369 79.3957C102.846 79.1944 102.477 78.9964 102.248 78.8141C102.011 78.6257 102 78.5182 102 78.5C102 78.4818 102.011 78.3743 102.248 78.1859C102.477 78.0036 102.846 77.8056 103.369 77.6043C104.41 77.2037 105.945 76.8332 107.878 76.5186C111.734 75.8908 117.081 75.5 123 75.5C128.919 75.5 134.266 75.8908 138.122 76.5186C140.055 76.8332 141.59 77.2037 142.631 77.6043C143.154 77.8056 143.523 78.0036 143.752 78.1859C143.989 78.3743 144 78.4818 144 78.5Z" stroke="black"/>
<path d="M110.5 80.5V78.5" stroke="black" stroke-linecap="round" stroke-linejoin="round"/>
<path d="M102 78.5L98 89C109 94 135.5 94 148.5 89L144 78.5" stroke="black" stroke-linecap="round" stroke-linejoin="round"/>
<path d="M145.5 82.5C144.667 83.3333 144 84.5 142 84.5M146.5 85C146 85.6667 144.7 87 143.5 87M99.5 85.5C100 86.1667 101.5 86.5 102.5 86M100.5 83.5C101 84.1667 102.5 84.5 103.5 84" stroke="black" stroke-linecap="round"/>
<path fill-rule="evenodd" clip-rule="evenodd" d="M75.1984 33.4308C73.5665 34.9916 77.2321 41.4359 82.505 40.963C87.7655 40.4778 90.2133 33.4772 88.3342 32.2378C85.7935 30.5688 77.3866 31.3384 75.1984 33.4308Z" fill="#121212"/>
<path fill-rule="evenodd" clip-rule="evenodd" d="M79.7987 11.2614C76.2629 18.3331 69.8093 15.3289 65.9644 19.3129C64.5458 20.7779 65.1485 17.3255 69.1819 15.5174C73.2154 13.7093 78.4295 11.1656 79.4804 7.72559C81.137 10.9184 86.7159 12.4792 91.0213 13.5301C95.3113 14.584 96.5321 17.8695 94.8631 16.6888C90.3691 13.459 84.9325 17.3842 79.7987 11.2614Z" fill="#121212"/>
<path fill-rule="evenodd" clip-rule="evenodd" d="M79.2409 5.0889C79.2409 5.0889 77.646 7.06391 71.106 8.7082C64.5659 10.3525 61.0672 15.851 60.1925 19.8597C59.3054 23.8808 58.678 14.7506 64.3063 8.93382C69.9469 3.11699 77.4204 4.59438 78.8854 1.24707C80.9315 4.27293 88.0249 1.4727 94.6113 6.17685C101.21 10.8841 102.227 19.9741 100.641 16.1786C99.0465 12.3955 94.6113 7.61715 87.8827 7.18135C81.1572 6.74246 79.2409 5.0889 79.2409 5.0889Z" fill="#121212"/>
<path fill-rule="evenodd" clip-rule="evenodd" d="M98.9755 26.8686C98.1503 23.7809 95.9157 21.7008 93.987 22.2201C92.0491 22.7393 91.1497 25.6508 91.978 28.7385C92.794 31.8231 95.0255 33.9032 96.9665 33.3839C98.8921 32.874 99.7915 29.9563 98.9755 26.8686ZM95.6959 29.5304C95.6248 28.7237 96.1472 28.016 96.855 27.9449C97.5751 27.8861 98.2242 28.4889 98.2984 29.2925C98.3695 30.0961 97.8471 30.8069 97.127 30.878C96.4068 30.9367 95.767 30.334 95.6959 29.5304Z" fill="#121212"/>
<path fill-rule="evenodd" clip-rule="evenodd" d="M63.7548 30.0705C64.0144 26.8901 65.8348 24.4422 67.8222 24.5968C69.8219 24.7606 71.2406 27.4712 70.9779 30.6485C70.7306 33.8289 68.9071 36.2768 66.9104 36.113C64.9138 35.9584 63.5075 33.2509 63.7548 30.0705ZM67.3825 32.0269C67.3114 31.2202 67.8337 30.5125 68.5539 30.4414C69.2647 30.3796 69.9138 30.9823 69.9849 31.7889C70.056 32.5956 69.5336 33.3034 68.8135 33.3745C68.0933 33.4332 67.4535 32.8305 67.3825 32.0269Z" fill="#121212"/>
<path d="M67.1738 54.5251C64.7257 58.1252 67.7644 67.3894 65.2805 62.3262C63.3885 58.4889 63.6101 55.2171 63.9303 53.5547C63.9998 53.6218 66.1216 54.2295 67.1738 54.5251Z" fill="#121212"/>
<path fill-rule="evenodd" clip-rule="evenodd" d="M36.6174 63.794C38.0731 61.1575 40.7559 59.1702 43.7941 57.5166C43.7694 57.5506 40.045 61.6675 41.405 66.9404C42.7773 72.2256 45.8155 75.1093 45.083 77.075C44.3505 79.0376 44.6936 75.6563 41.405 72.7108C38.852 70.4268 36.6885 66.8075 36.6174 63.794Z" fill="#121212"/>
<path fill-rule="evenodd" clip-rule="evenodd" d="M78.8533 83.6211C72.4337 84.094 71.0027 87.0024 74.8105 86.5419C76.5383 86.3286 77.9786 86.0906 78.9491 85.9855C78.9243 85.1479 78.8903 84.3196 78.8533 83.6211ZM78.9707 87.194C76.5475 88.1769 71.4879 89.0392 74.7611 89.7346C76.971 90.1952 78.1918 89.8397 78.912 89.4039C78.9614 88.7549 78.9707 87.9853 78.9707 87.194Z" fill="#121212"/>
<path d="M50.1106 54.6525C50.8554 56.6398 51.3234 59.0038 54.7418 62.3604C56.3802 63.9784 57.343 66.2732 57.9414 68.5005C58.6383 69.1576 60.0221 70.5595 60.0616 70.9826C60.0619 70.9886 60.0622 70.9945 60.0625 71.0005C60.0625 70.9947 60.0622 70.9888 60.0616 70.9826C59.9256 68.2079 59.1702 64.4359 57.2855 60.0794C55.6697 56.3432 55.8836 53.2588 56.4184 51.7139L54.3982 52.3371C53.2107 53.1501 51.7356 53.9013 50.1106 54.6525Z" fill="#121212"/>
<path d="M50.3585 64.1713C46.9525 61.2289 46.3745 58.2247 46.3745 58.2247C46.3745 57.5169 45.948 57.2202 45.6513 57.5138C45.3545 57.7982 44.8952 64.9252 49.0801 68.0005L52.5801 67.1001C52.0499 66.0238 51.3257 65.0073 50.3585 64.1713Z" fill="#121212"/>
<path d="M78.9883 80.3592C78.8647 79.4938 78.7823 78.9167 78.8338 78.6592C77.752 78.6592 76.4642 78.7107 75.743 78.9683C70.6432 80.7897 74.5067 82.3681 76.052 82.3681C76.5466 82.3681 78.0095 82.3167 78.6792 82.3682C78.6792 81.7501 78.9368 80.7713 78.9883 80.3592Z" fill="#121212"/>
<path fill-rule="evenodd" clip-rule="evenodd" d="M28.2275 79.1788C28.2275 80.5515 28.0432 83.3869 30.6846 84.7077C30.14 85.4989 27.8205 85.3971 27.1627 86.0284C24.9615 84.7077 24.7056 82.1548 24.7056 80.0593C25.6898 79.5269 27.7398 80.0099 28.2275 79.1788ZM17.2636 81.0743C17.1723 82.4903 17.0999 85.1581 18.5528 86.9653C16.9542 87.0077 15.6668 87.3551 13.9555 86.9653C13.7237 85.3794 13.602 82.6783 14.5801 80.4995C15.4545 80.7882 16.3586 80.973 17.2636 81.0743ZM8.50199 78.2921C7.70961 79.2852 6.16086 81.7559 7.02844 85.2188C6.29832 84.8875 5.54509 84.521 4.8064 84.1088C4.13653 83.7462 3.61261 83.3069 3.24464 82.841C3.5096 81.2197 4.45121 78.5658 7.64506 77.1039C7.72392 77.2035 7.79984 77.2999 7.87754 77.4243C8.06443 77.727 8.27645 78.0216 8.50199 78.2921Z" fill="#121212"/>
<path d="M44.7265 70.6465C44.5313 70.8418 44.5313 71.1583 44.7265 71.3536C44.9218 71.5489 45.2384 71.5489 45.4336 71.3536L44.7265 70.6465ZM52.8808 82.5417C52.6276 82.6518 52.5115 82.9464 52.6216 83.1996C52.7317 83.4529 53.0263 83.5689 53.2795 83.4588L52.8808 82.5417ZM56.5802 92.5001L56.6176 92.0015L56.5989 92.0001H56.5802L56.5802 92.5001ZM45.4336 71.3536C50.7544 66.0329 56.6519 67.2309 59.1891 70.4149C60.4615 72.0117 60.9199 74.1259 60.0829 76.2788C59.241 78.4441 57.0561 80.7263 52.8808 82.5417L53.2795 83.4588C57.6042 81.5784 60.0443 79.1377 61.0149 76.6412C61.9903 74.1324 61.4488 71.646 59.9712 69.7917C57.0083 66.0735 50.4058 64.9672 44.7265 70.6465L45.4336 71.3536ZM53.2795 83.4588C56.0312 82.2624 58.8116 82.3215 61.1394 83.0625C63.4793 83.8074 65.3218 85.2273 66.2153 86.6973C66.6604 87.4294 66.855 88.1473 66.7961 88.7893C66.7383 89.4187 66.4327 90.0272 65.7748 90.5555C64.423 91.6412 61.5907 92.3745 56.6176 92.0015L56.5428 92.9987C61.5696 93.3757 64.7373 92.6714 66.401 91.3352C67.2509 90.6526 67.7071 89.8041 67.7919 88.8808C67.8755 87.9701 67.5936 87.0395 67.0699 86.1779C66.0259 84.4604 63.9622 82.9116 61.4427 82.1096C58.9112 81.3038 55.8791 81.2381 52.8808 82.5417L53.2795 83.4588ZM56.5802 92.0001C56.2569 92.0001 55.8771 91.9015 55.4366 91.7239C54.9982 91.547 54.5394 91.309 54.0545 91.0566C53.5793 90.8092 53.0776 90.5473 52.5887 90.3492C52.1021 90.152 51.5866 90.0001 51.0802 90.0001V91.0001C51.3984 91.0001 51.7744 91.0982 52.2132 91.276C52.6497 91.4529 53.1075 91.691 53.5928 91.9436C54.0684 92.1912 54.5712 92.4531 55.0626 92.6513C55.5519 92.8486 56.0702 93.0001 56.5802 93.0001L56.5802 92.0001Z" fill="black"/>
<path d="M88 76.5C88 76.5 87.1793 77.7174 87.113 82.897C87.0327 88.073 87.1409 90.0665 86.4045 90.9513C85.7392 91.7514 81.0555 92.5544 78.0801 91.4841" stroke="black"/>
<path d="M77.5801 48.0009C79.5801 46.5005 84.5801 46.0009 87.5801 48.0006" stroke="black" stroke-linecap="round" stroke-linejoin="round"/>
<path d="M112.58 29C113.893 40.6723 101.049 42.7581 97.2955 38.5811C94.5362 35.5085 90.6089 34.6838 88.5859 34.4634M51.0801 33.5C51.6023 45.6488 64.6654 46.1249 67.6427 41.2762C69.7995 37.7623 73.5016 36.2427 75.4502 35.6597" stroke="black"/>
<path d="M97.6758 5.71759C103.041 -6.55362 124.895 10.5988 106.204 20.0295" stroke="black"/>
<path d="M78.8126 0.762865L78.8494 0.762245L78.8857 0.756225L78.8857 0.756211L78.8858 0.756196L78.8867 0.756051L78.8918 0.755222L78.9146 0.751631C78.9353 0.748418 78.9669 0.743623 79.009 0.737567C79.093 0.725455 79.2187 0.708307 79.3819 0.688699C79.7084 0.649477 80.1848 0.600459 80.7786 0.562213C81.9669 0.485666 83.6209 0.452566 85.4816 0.625948C89.2158 0.973908 93.712 2.14654 96.9808 5.38985C99.4065 7.79908 101.004 10.8414 102.76 14.1855L102.782 14.2284C104.538 17.5716 106.443 21.1857 109.481 24.5832C111.242 26.5582 112.793 28.7571 113.497 31.3914C114.5 35.1771 113.909 38.4891 112.282 41.3626C110.647 44.2498 107.952 46.7153 104.723 48.7527C98.2596 52.8304 89.7757 55.117 83.8308 55.6554L83.8303 55.6554C77.8918 56.1999 69.135 55.4803 62.0423 52.6348C58.4985 51.2132 55.4035 49.2741 53.2753 46.7295C51.1572 44.197 49.9801 41.0468 50.2863 37.1442C50.503 34.4201 51.6293 31.9802 53.0054 29.7284L53.0056 29.7281C55.383 25.8316 56.6069 21.9326 57.7317 18.3279L57.7471 18.2784C58.8716 14.6744 59.8944 11.3964 61.8443 8.58755C64.4749 4.80576 68.6873 2.84056 72.2989 1.82448C74.0984 1.3182 75.7318 1.05242 76.915 0.913385C77.5061 0.84392 77.9837 0.806226 78.3121 0.785928C78.4762 0.775782 78.603 0.769988 78.6879 0.766745C78.7303 0.765124 78.7623 0.76414 78.7833 0.763569L78.8063 0.762994L78.8115 0.762886L78.8124 0.762868L78.8125 0.762867L78.8126 0.762865Z" stroke="black"/>
<path d="M60.499 10.5003C53.4356 -3.50478 32.3752 19.5499 55.2051 25.1149" stroke="black"/>
<path d="M99.9258 8.80952C102.962 0.0742671 117.499 11.4998 104.813 17.5759" stroke="black"/>
<path d="M59.0001 14.5001C54.5 2 39.2769 19.2847 56.1339 22.382" stroke="black"/>
<path d="M82.5586 40.6426V46.4995" stroke="black"/>
<path d="M64.3525 84.0963C63.892 82.6555 63.499 82 62.9359 81.1005M92.0793 54.5C93.4274 60.8226 95.4528 77.4492 79.7013 80.391C79.7013 80.391 78.7895 80.6501 78.7895 81.7824C78.7895 82.927 79.2748 89.3134 78.6844 91.0134C78.1034 92.701 73.3992 93.6821 70.1941 92.4418C68.9732 91.9675 67.9425 90.9794 67.0928 89.8083M57.499 50.5C51.7282 54.4501 41.0801 56.5 35.5801 64.5C30.8296 71.4098 27.5801 90.5 51.0801 90.5" stroke="black" stroke-linecap="round" stroke-linejoin="round"/>
<path d="M92.4395 68.3463C92.3684 68.3216 88.2422 67.0235 86.0416 69.1623C83.8193 71.3135 82.3172 74.3764 80.0949 75.8198C78.5001 76.849 78.5464 79.2135 78.6886 80.456" stroke="black"/>
<path d="M32.2833 77.5786C24.3589 80.6603 11.9308 83.4156 7.58057 76.4998C4.87085 72.2046 -1.05762 80.8964 4.80663 84.1054C14.9904 89.6832 25.948 86.3635 34.4995 83.9995" stroke="black"/>
</svg>
