<svg width="363" height="156" viewBox="0 0 363 156" fill="none" xmlns="http://www.w3.org/2000/svg">
<g opacity="0.2">
<path d="M349.216 -19.7543C342.145 -30.5804 333.857 -40.8438 324.35 -50.3503C314.844 -59.8568 304.58 -68.1454 293.754 -75.2159L349.216 -19.7543Z" fill="url(#paint0_linear)"/>
<path d="M272.39 -87.2647L361.265 1.6102C363.953 7.19742 366.351 12.8889 368.461 18.6622L255.338 -94.4609C261.111 -92.3514 266.803 -89.9526 272.39 -87.2647Z" fill="url(#paint1_linear)"/>
<path d="M241.584 -98.8988C237.274 -100.11 232.929 -101.167 228.559 -102.068L376.068 45.4408C375.167 41.0706 374.11 36.7261 372.899 32.4159L241.584 -98.8988Z" fill="url(#paint2_linear)"/>
<path d="M378.045 56.7334L217.267 -104.045C213.568 -104.578 209.857 -105.002 206.138 -105.318L379.318 67.8618C379.002 64.1431 378.578 60.4319 378.045 56.7334Z" fill="url(#paint3_linear)"/>
<path d="M379.898 77.758L196.242 -105.898C192.936 -106.006 189.627 -106.028 186.32 -105.965L379.965 87.6802C380.028 84.3729 380.006 81.0643 379.898 77.758Z" fill="url(#paint4_linear)"/>
<path d="M379.583 96.6147L177.385 -105.583C174.367 -105.384 171.352 -105.112 168.344 -104.769L378.769 105.656C379.112 102.648 379.384 99.6333 379.583 96.6147Z" fill="url(#paint5_linear)"/>
<path d="M377.653 113.856L160.144 -103.653C157.354 -103.212 154.572 -102.708 151.8 -102.142L376.142 122.2C376.708 119.428 377.212 116.646 377.653 113.856Z" fill="url(#paint6_linear)"/>
<path d="M374.426 129.801L144.199 -100.426C141.601 -99.7837 139.013 -99.0854 136.439 -98.3315L372.332 137.561C373.085 134.987 373.784 132.399 374.426 129.801Z" fill="url(#paint7_linear)"/>
<path d="M370.104 144.65L129.35 -96.1043C126.918 -95.2875 124.5 -94.4201 122.096 -93.5022L367.502 151.904C368.42 149.5 369.288 147.082 370.104 144.65Z" fill="url(#paint8_linear)"/>
<path d="M364.823 158.54L115.46 -90.8227C113.178 -89.8505 110.911 -88.8317 108.661 -87.7662L361.766 165.339C362.832 163.089 363.851 160.822 364.823 158.54Z" fill="url(#paint9_linear)"/>
<path d="M358.676 171.565L102.435 -84.6764C100.29 -83.5623 98.1624 -82.4046 96.0526 -81.2031L355.203 177.947C356.405 175.838 357.562 173.71 358.676 171.565Z" fill="url(#paint10_linear)"/>
<path d="M351.733 183.793L90.2068 -77.7332C88.1905 -76.4868 86.1925 -75.1992 84.214 -73.8703L347.87 189.786C349.199 187.807 350.487 185.809 351.733 183.793Z" fill="url(#paint11_linear)"/>
<path d="M344.042 195.274L78.7265 -70.042C76.8323 -68.6703 74.9578 -67.2592 73.104 -65.8089L339.809 200.896C341.259 199.042 342.67 197.168 344.042 195.274Z" fill="url(#paint12_linear)"/>
<path d="M335.638 206.041L67.9592 -61.6379C66.1826 -60.1457 64.4269 -58.6158 62.6931 -57.0483L331.048 211.307C332.616 209.573 334.146 207.817 335.638 206.041Z" fill="url(#paint13_linear)"/>
<path d="M326.545 216.12L57.8804 -52.5453C57.1324 -51.821 56.3888 -51.0893 55.6497 -50.3503C54.7426 -49.4432 53.8466 -48.5291 52.9616 -47.6084L321.608 221.038C322.529 220.153 323.443 219.257 324.35 218.35C325.089 217.611 325.821 216.868 326.545 216.12Z" fill="url(#paint14_linear)"/>
<path d="M316.779 225.524L48.4758 -42.7786C46.9143 -41.0386 45.3906 -39.2767 43.9046 -37.494L311.494 230.095C313.277 228.609 315.039 227.086 316.779 225.524Z" fill="url(#paint15_linear)"/>
<path d="M306.332 234.249L39.7512 -32.3316C38.3072 -30.4714 36.9025 -28.5905 35.5371 -26.6901L300.69 238.463C302.591 237.098 304.471 235.693 306.332 234.249Z" fill="url(#paint16_linear)"/>
<path d="M295.184 242.273L31.7273 -21.1842C30.4049 -19.199 29.1238 -17.1943 27.8841 -15.1715L289.172 246.116C291.194 244.876 293.199 243.595 295.184 242.273Z" fill="url(#paint17_linear)"/>
<path d="M283.306 249.567L24.4335 -9.30637C23.239 -7.18945 22.0883 -5.05454 20.9813 -2.90289L276.903 253.019C279.055 251.912 281.189 250.761 283.306 249.567Z" fill="url(#paint18_linear)"/>
<path d="M270.656 256.088L17.9122 3.34372C16.8541 5.60168 15.8428 7.87619 14.8785 10.1657L263.834 259.122C266.124 258.157 268.398 257.146 270.656 256.088Z" fill="url(#paint19_linear)"/>
<path d="M257.176 261.779L12.2215 16.8244C11.3117 19.2364 10.4527 21.6633 9.64452 24.1032L249.897 264.355C252.337 263.547 254.764 262.688 257.176 261.779Z" fill="url(#paint20_linear)"/>
<path d="M242.783 266.558L7.44247 31.2168C6.69777 33.8012 6.00893 36.3983 5.376 39.0062L234.994 268.624C237.602 267.991 240.199 267.302 242.783 266.558Z" fill="url(#paint21_linear)"/>
<path d="M227.364 270.31L3.6896 46.6356C3.13408 49.4188 2.64132 52.212 2.21129 55.0129L218.987 271.789C221.788 271.359 224.581 270.866 227.364 270.31Z" fill="url(#paint22_linear)"/>
<path d="M210.753 272.87L1.12993 63.2473C0.799792 66.2693 0.54198 69.2977 0.356554 72.3297L201.67 273.643C204.702 273.458 207.731 273.2 210.753 272.87Z" fill="url(#paint23_linear)"/>
<path d="M192.692 273.981L0.0189988 81.3078C-0.0278155 84.6332 0.0121012 87.9596 0.13881 91.2833L182.717 273.861C186.04 273.988 189.367 274.028 192.692 273.981Z" fill="url(#paint24_linear)"/>
<path d="M172.761 273.221L0.778946 101.239C1.11812 104.984 1.5681 108.721 2.1288 112.445L161.555 271.871C165.279 272.432 169.016 272.882 172.761 273.221Z" fill="url(#paint25_linear)"/>
<path d="M150.17 269.801L4.19877 123.83C5.14122 128.247 6.24235 132.636 7.50209 136.99L137.01 266.498C141.364 267.758 145.753 268.859 150.17 269.801Z" fill="url(#paint26_linear)"/>
<path d="M123.066 261.87L12.1305 150.934C14.3476 156.836 16.8687 162.651 19.6937 168.353L105.647 254.306C111.349 257.131 117.164 259.652 123.066 261.87Z" fill="url(#paint27_linear)"/>
<path d="M83.2304 241.205L32.7949 190.77C39.4119 200.489 47.0301 209.731 55.6497 218.35C64.2693 226.97 73.5111 234.588 83.2304 241.205Z" fill="url(#paint28_linear)"/>
</g>
<defs>
<linearGradient id="paint0_linear" x1="323.105" y1="218.903" x2="52.6364" y2="-51.566" gradientUnits="userSpaceOnUse">
<stop stop-color="white"/>
<stop offset="1" stop-color="white" stop-opacity="0"/>
</linearGradient>
<linearGradient id="paint1_linear" x1="323.105" y1="218.903" x2="52.6364" y2="-51.566" gradientUnits="userSpaceOnUse">
<stop stop-color="white"/>
<stop offset="1" stop-color="white" stop-opacity="0"/>
</linearGradient>
<linearGradient id="paint2_linear" x1="323.105" y1="218.903" x2="52.6364" y2="-51.566" gradientUnits="userSpaceOnUse">
<stop stop-color="white"/>
<stop offset="1" stop-color="white" stop-opacity="0"/>
</linearGradient>
<linearGradient id="paint3_linear" x1="323.105" y1="218.903" x2="52.6364" y2="-51.566" gradientUnits="userSpaceOnUse">
<stop stop-color="white"/>
<stop offset="1" stop-color="white" stop-opacity="0"/>
</linearGradient>
<linearGradient id="paint4_linear" x1="323.105" y1="218.903" x2="52.6364" y2="-51.566" gradientUnits="userSpaceOnUse">
<stop stop-color="white"/>
<stop offset="1" stop-color="white" stop-opacity="0"/>
</linearGradient>
<linearGradient id="paint5_linear" x1="323.105" y1="218.903" x2="52.6364" y2="-51.566" gradientUnits="userSpaceOnUse">
<stop stop-color="white"/>
<stop offset="1" stop-color="white" stop-opacity="0"/>
</linearGradient>
<linearGradient id="paint6_linear" x1="323.105" y1="218.903" x2="52.6364" y2="-51.566" gradientUnits="userSpaceOnUse">
<stop stop-color="white"/>
<stop offset="1" stop-color="white" stop-opacity="0"/>
</linearGradient>
<linearGradient id="paint7_linear" x1="323.105" y1="218.903" x2="52.6364" y2="-51.566" gradientUnits="userSpaceOnUse">
<stop stop-color="white"/>
<stop offset="1" stop-color="white" stop-opacity="0"/>
</linearGradient>
<linearGradient id="paint8_linear" x1="323.105" y1="218.903" x2="52.6364" y2="-51.566" gradientUnits="userSpaceOnUse">
<stop stop-color="white"/>
<stop offset="1" stop-color="white" stop-opacity="0"/>
</linearGradient>
<linearGradient id="paint9_linear" x1="323.105" y1="218.903" x2="52.6364" y2="-51.566" gradientUnits="userSpaceOnUse">
<stop stop-color="white"/>
<stop offset="1" stop-color="white" stop-opacity="0"/>
</linearGradient>
<linearGradient id="paint10_linear" x1="323.105" y1="218.903" x2="52.6364" y2="-51.566" gradientUnits="userSpaceOnUse">
<stop stop-color="white"/>
<stop offset="1" stop-color="white" stop-opacity="0"/>
</linearGradient>
<linearGradient id="paint11_linear" x1="323.105" y1="218.903" x2="52.6364" y2="-51.566" gradientUnits="userSpaceOnUse">
<stop stop-color="white"/>
<stop offset="1" stop-color="white" stop-opacity="0"/>
</linearGradient>
<linearGradient id="paint12_linear" x1="323.105" y1="218.903" x2="52.6364" y2="-51.566" gradientUnits="userSpaceOnUse">
<stop stop-color="white"/>
<stop offset="1" stop-color="white" stop-opacity="0"/>
</linearGradient>
<linearGradient id="paint13_linear" x1="323.105" y1="218.903" x2="52.6364" y2="-51.566" gradientUnits="userSpaceOnUse">
<stop stop-color="white"/>
<stop offset="1" stop-color="white" stop-opacity="0"/>
</linearGradient>
<linearGradient id="paint14_linear" x1="323.105" y1="218.903" x2="52.6364" y2="-51.566" gradientUnits="userSpaceOnUse">
<stop stop-color="white"/>
<stop offset="1" stop-color="white" stop-opacity="0"/>
</linearGradient>
<linearGradient id="paint15_linear" x1="323.105" y1="218.903" x2="52.6364" y2="-51.566" gradientUnits="userSpaceOnUse">
<stop stop-color="white"/>
<stop offset="1" stop-color="white" stop-opacity="0"/>
</linearGradient>
<linearGradient id="paint16_linear" x1="323.105" y1="218.903" x2="52.6364" y2="-51.566" gradientUnits="userSpaceOnUse">
<stop stop-color="white"/>
<stop offset="1" stop-color="white" stop-opacity="0"/>
</linearGradient>
<linearGradient id="paint17_linear" x1="323.105" y1="218.903" x2="52.6364" y2="-51.566" gradientUnits="userSpaceOnUse">
<stop stop-color="white"/>
<stop offset="1" stop-color="white" stop-opacity="0"/>
</linearGradient>
<linearGradient id="paint18_linear" x1="323.105" y1="218.903" x2="52.6364" y2="-51.566" gradientUnits="userSpaceOnUse">
<stop stop-color="white"/>
<stop offset="1" stop-color="white" stop-opacity="0"/>
</linearGradient>
<linearGradient id="paint19_linear" x1="323.105" y1="218.903" x2="52.6364" y2="-51.566" gradientUnits="userSpaceOnUse">
<stop stop-color="white"/>
<stop offset="1" stop-color="white" stop-opacity="0"/>
</linearGradient>
<linearGradient id="paint20_linear" x1="323.105" y1="218.903" x2="52.6364" y2="-51.566" gradientUnits="userSpaceOnUse">
<stop stop-color="white"/>
<stop offset="1" stop-color="white" stop-opacity="0"/>
</linearGradient>
<linearGradient id="paint21_linear" x1="323.105" y1="218.903" x2="52.6364" y2="-51.566" gradientUnits="userSpaceOnUse">
<stop stop-color="white"/>
<stop offset="1" stop-color="white" stop-opacity="0"/>
</linearGradient>
<linearGradient id="paint22_linear" x1="323.105" y1="218.903" x2="52.6364" y2="-51.566" gradientUnits="userSpaceOnUse">
<stop stop-color="white"/>
<stop offset="1" stop-color="white" stop-opacity="0"/>
</linearGradient>
<linearGradient id="paint23_linear" x1="323.105" y1="218.903" x2="52.6364" y2="-51.566" gradientUnits="userSpaceOnUse">
<stop stop-color="white"/>
<stop offset="1" stop-color="white" stop-opacity="0"/>
</linearGradient>
<linearGradient id="paint24_linear" x1="323.105" y1="218.903" x2="52.6364" y2="-51.566" gradientUnits="userSpaceOnUse">
<stop stop-color="white"/>
<stop offset="1" stop-color="white" stop-opacity="0"/>
</linearGradient>
<linearGradient id="paint25_linear" x1="323.105" y1="218.903" x2="52.6364" y2="-51.566" gradientUnits="userSpaceOnUse">
<stop stop-color="white"/>
<stop offset="1" stop-color="white" stop-opacity="0"/>
</linearGradient>
<linearGradient id="paint26_linear" x1="323.105" y1="218.903" x2="52.6364" y2="-51.566" gradientUnits="userSpaceOnUse">
<stop stop-color="white"/>
<stop offset="1" stop-color="white" stop-opacity="0"/>
</linearGradient>
<linearGradient id="paint27_linear" x1="323.105" y1="218.903" x2="52.6364" y2="-51.566" gradientUnits="userSpaceOnUse">
<stop stop-color="white"/>
<stop offset="1" stop-color="white" stop-opacity="0"/>
</linearGradient>
<linearGradient id="paint28_linear" x1="323.105" y1="218.903" x2="52.6364" y2="-51.566" gradientUnits="userSpaceOnUse">
<stop stop-color="white"/>
<stop offset="1" stop-color="white" stop-opacity="0"/>
</linearGradient>
</defs>
</svg>
