<svg width="159" height="156" viewBox="0 0 159 156" fill="none" xmlns="http://www.w3.org/2000/svg">
<path d="M44.6475 122.595C44.8956 124.708 45.6277 127.452 46.585 129.851C47.1531 131.275 47.8577 132.725 48.6916 133.94C49.4513 135.047 50.6505 136.456 52.3783 137.036L52.3848 137.038C53.877 137.535 57.1628 138.523 60.3581 137.916C62.059 137.592 63.8474 136.796 65.2586 135.17C66.0919 134.209 66.7057 133.061 67.1144 131.746C68.0615 132.921 69.0555 134.063 69.7095 134.618C69.7102 134.618 69.7109 134.619 69.7116 134.619L44.6475 122.595ZM44.6475 122.595C44.4726 122.335 44.2687 122.017 44.0478 121.646C43.411 120.575 42.6192 119.039 41.9722 117.131C40.8659 113.869 40.1706 109.472 41.4426 104.52C37.0084 101.644 34.2758 97.2635 33.2666 92.197C32.0998 86.3392 33.2412 79.6849 36.3684 73.2782L44.6475 122.595ZM105.84 133.917C105.32 134.539 104.681 134.878 104.35 135.037C103.944 135.233 103.512 135.386 103.104 135.506C102.283 135.748 101.317 135.931 100.32 136.038C99.1725 136.163 97.8015 136.208 96.424 136.058C95.9572 136.485 95.4602 136.803 95.0359 137.033C94.0127 137.587 92.8256 137.953 91.6503 138.168C89.3336 138.592 86.4551 138.536 83.9533 137.566L83.9495 137.565C82.693 137.076 81.6199 136.317 80.7106 135.448L129.648 60.7835M105.84 133.917C105.839 133.917 105.839 133.917 105.839 133.917L103.428 131.907L105.84 133.917ZM105.84 133.917C106.952 132.581 107.1 130.84 107.171 129.643C107.229 128.677 107.243 127.405 107.26 125.853C107.267 125.213 107.275 124.525 107.286 123.792L107.287 123.783C107.311 121.914 107.404 120.533 107.514 119.564C107.55 119.249 107.587 118.984 107.622 118.765M107.622 118.765C112.127 114.745 113.929 109.278 114.5 104.312C114.944 100.45 114.671 96.6966 114.238 93.7419M107.622 118.765C107.641 118.647 107.66 118.543 107.677 118.451C107.727 118.198 107.761 118.085 107.765 118.072C107.765 118.071 107.766 118.071 107.765 118.071L104.801 117.036M107.622 118.765C107.342 119.015 107.05 119.26 106.749 119.499L104.801 117.036M114.238 93.7419C118.912 92.2619 123.381 90.0695 126.817 86.9201C131.047 83.0437 133.639 77.7633 133.112 71.0396L133.112 71.0363C132.806 67.1927 131.446 63.7266 129.648 60.7835M114.238 93.7419C114.08 92.6634 113.9 91.6913 113.727 90.8591L110.653 91.5004M114.238 93.7419C113.308 94.0363 112.37 94.3025 111.43 94.5425L110.653 91.5004M129.648 60.7835L126.967 62.4188C128.566 65.0348 129.723 68.0311 129.982 71.2852C130.87 82.6069 121.441 88.7455 110.653 91.5004M129.648 60.7835L104.801 117.036M110.653 91.5004C111.883 97.3926 113.314 110.306 104.801 117.036M94.778 132.506L94.8254 132.997C94.7399 133.246 94.5767 133.481 94.3493 133.7L94.778 132.506ZM94.778 132.506C95.2221 132.665 95.708 132.782 96.2158 132.863C96.7858 132.955 97.3834 133.001 97.9809 133.011L94.778 132.506ZM62.8379 86.8689C59.9223 84.8392 57.3723 82.4235 55.501 79.5857C52.5313 75.082 51.3843 69.6693 53.0015 63.5653L53.003 63.5598C54.0173 59.7592 56.0813 56.7921 58.3037 54.3L58.3066 54.2968C58.86 53.6779 59.3667 53.0609 59.8442 52.4356C55.9632 49.8195 53.6846 46.5793 53.0138 42.9947C52.1923 38.6049 53.9393 34.5046 56.5645 31.5962C59.1748 28.7044 62.9757 26.6153 66.9597 26.4521C70.0689 26.3248 73.1001 27.3883 75.4926 29.8104C81.47 25.4496 89.9443 24.1095 97.6765 24.9945C105.156 25.8506 112.858 28.8951 117.705 34.3396C118.365 33.7627 119.076 33.2771 119.836 32.8874C121.888 31.835 124.08 31.5913 126.153 31.9038C130.198 32.5136 133.877 35.2236 136.181 38.5522C138.501 41.9027 139.801 46.4475 138.119 50.8673C136.738 54.4937 133.6 57.3912 128.769 59.3092C129.042 59.7814 129.334 60.269 129.646 60.7816L62.8379 86.8689ZM62.8379 86.8689C62.125 87.1797 61.3775 87.496 60.5968 87.8264C59.8155 88.157 59.0009 88.5017 58.1543 88.8692C55.0232 90.2282 51.5702 91.8625 48.6122 94.1757C48.3818 93.9908 48.1308 93.7256 47.8678 93.3486C47.1887 92.3752 46.6339 90.9058 46.4201 89.1685C45.9776 85.5726 47.0821 82.1046 49.4968 80.4225L49.5002 80.4201C50.5136 79.7121 51.3519 78.7577 51.7944 77.5455C52.2406 76.3232 52.1891 75.0977 51.8549 74.032C51.2229 72.0161 49.6022 70.5225 47.9867 69.6517C46.3173 68.7517 44.1515 68.2361 41.9523 68.7068C39.625 69.2049 37.6065 70.74 36.3689 73.2771L62.8379 86.8689Z" fill="white" stroke="white" stroke-width="6.27943"/>
<path fill-rule="evenodd" clip-rule="evenodd" d="M53.5108 101.789L49.4394 97.9092C42.5343 98.4661 39.6723 83.6202 47.3647 78.2614C52.1419 74.9241 42.8996 68.207 39.5375 75.1015C30.6357 93.3378 40.4206 110.485 68.041 103.431L53.5108 101.789Z" fill="#E07D3B"/>
<path fill-rule="evenodd" clip-rule="evenodd" d="M46.9843 97.4057C45.7642 97.9909 44.3385 99.2393 43.7817 101.924C42.8454 101.342 42.0049 100.69 41.246 99.9699C41.3807 98.3704 41.9801 95.7105 44.5017 94.9231C45.1649 96.0226 46.0054 96.8915 46.9843 97.4057ZM42.7922 88.0216C41.1644 87.9932 38.3945 88.2521 36.4014 90.0147C36.2666 88.1847 36.1747 86.2126 36.5293 84.2301C38.3345 83.879 40.5405 84.113 43.0904 85.1167C42.9131 86.1807 42.8596 86.9789 42.7922 88.0216ZM46.3991 79.024C45.2181 78.1693 42.3028 76.5273 38.3804 77.7083C38.7208 76.8535 39.1003 75.9704 39.533 75.1015C39.9125 74.3142 40.3877 73.69 40.9019 73.2432C42.7745 73.4595 45.8671 74.3958 47.7148 77.9778C47.6049 78.0735 47.4985 78.1658 47.3602 78.2615C47.0233 78.492 46.697 78.7509 46.3991 79.024Z" fill="#3A2C16"/>
<path fill-rule="evenodd" clip-rule="evenodd" d="M102.992 112.262L105.244 116.142C105.244 116.142 103.886 118.245 103.818 123.498C103.737 128.746 103.847 130.768 103.098 131.665C102.354 132.559 96.6544 133.456 93.7782 131.814C90.8878 130.158 80.6702 130.24 80.6702 130.24C80.6702 130.24 80.617 132.002 78.7834 132.453C76.9534 132.899 72.8288 132.981 71.591 131.924C70.3568 130.878 65.5938 124.842 65.4839 123.498C65.374 122.153 79.2267 110.716 80.2871 110.716C81.3369 110.716 102.992 112.262 102.992 112.262Z" fill="#EDB294"/>
<path fill-rule="evenodd" clip-rule="evenodd" d="M109.49 88.1136C109.49 88.1136 118.335 116.28 95.8534 120.486C95.8534 120.486 94.8072 120.784 94.8072 122.086C94.8072 123.402 95.364 130.743 94.6866 132.697C94.0198 134.637 88.622 135.765 84.9442 134.339C81.2807 132.913 79.1102 127.448 78.2413 124.746C77.7129 123.09 77.117 122.643 76.7198 122.561L76.3262 122.575C68.2791 122.926 64.8496 123.008 64.385 128.275C63.626 136.673 56.6642 134.868 53.7347 133.892C50.8159 132.913 48.1986 124.597 48.0496 121.153C48.0496 121.153 41.7545 113.216 45.7976 102.878C49.8406 92.5397 69.4743 90.4366 73.0669 83.9925C76.6702 77.5449 85.2173 93.7313 109.49 88.1136Z" fill="#ED9331"/>
<path fill-rule="evenodd" clip-rule="evenodd" d="M78.1235 88.4792C78.1235 88.4792 76.1693 93.5011 79.3186 99.8884C82.4538 106.279 77.9213 92.7776 82.5354 89.9156C87.1317 87.0429 78.1235 88.4792 78.1235 88.4792Z" fill="#3A2C16"/>
<path fill-rule="evenodd" clip-rule="evenodd" d="M46.4286 101.573C48.099 98.5479 51.1774 96.2675 54.6637 94.3701C54.6353 94.4091 50.3617 99.1331 51.9222 105.184C53.4969 111.248 56.9831 114.557 56.1426 116.813C55.3021 119.065 55.6957 115.185 51.9222 111.805C48.9928 109.184 46.5102 105.031 46.4286 101.573Z" fill="#3A2C16"/>
<path fill-rule="evenodd" clip-rule="evenodd" d="M99.084 119.646C98.2825 119.267 97.293 118.912 96.0978 118.575C87.9691 117.855 85.8128 123.026 91.4838 122.849C92.569 122.82 93.7216 122.835 94.821 122.902C94.8069 122.551 94.8069 122.264 94.8069 122.09C94.8069 120.788 95.8495 120.49 95.8495 120.49C97.0093 120.267 98.0803 119.983 99.084 119.646ZM94.892 124.324C87.5258 124.867 85.8838 128.204 90.2531 127.676C92.2356 127.431 93.8883 127.158 95.0019 127.037C94.9735 126.076 94.9345 125.126 94.892 124.324ZM95.0267 128.424C92.2463 129.552 86.4406 130.541 90.1964 131.339C92.7321 131.868 94.133 131.46 94.9594 130.96C95.0161 130.215 95.0267 129.332 95.0267 128.424Z" fill="#3A2C16"/>
<path fill-rule="evenodd" clip-rule="evenodd" d="M60.6465 91.5004C63.7001 90.0888 66.1437 89.1951 68.2716 87.7765C69.3355 87.0672 70.4006 86.2324 70.9468 87.2361C70.9468 87.2361 66.3753 89.8534 70.202 98.702C74.0287 107.547 73.7982 114.293 72.752 116.314C71.6915 118.336 72.6704 106.639 67.2832 101.319C63.3607 97.4678 61.5012 93.7808 60.6465 91.5004Z" fill="#3A2C16"/>
<path fill-rule="evenodd" clip-rule="evenodd" d="M96.5193 28.6738C96.5193 28.6738 110.195 28.9043 116.451 37.8983C121.065 44.5445 121.239 53.379 126.612 62.185C128.211 64.8024 129.555 67.6928 129.814 70.9485C131.268 89.4827 104.471 94.0684 90.6995 92.8058C76.9141 91.5575 51.3932 82.223 56.1562 64.2456C56.9967 61.0962 58.8444 58.4931 60.8908 56.1985C67.7569 48.5202 69.5195 39.8489 75.2578 34.1496C83.0318 26.4359 96.5193 28.6738 96.5193 28.6738Z" fill="#ED9331"/>
<path fill-rule="evenodd" clip-rule="evenodd" d="M128.743 66.3768C129.3 67.8167 129.694 69.3346 129.815 70.9483C131.265 89.4825 104.471 94.0681 90.6997 92.8056C76.9143 91.5572 51.3934 82.2227 56.1564 64.2453C56.5785 62.699 57.2275 61.2733 58.0432 59.9434C55.4649 74.392 70.9313 77.5803 75.368 72.6435C79.8048 67.7032 86.873 67.8273 86.873 67.8273C86.873 67.8273 89.3414 69.2247 92.6645 71.1256C96.2749 69.863 98.9596 68.9267 98.9596 68.9267C98.9596 68.9267 105.921 70.0794 109.394 75.7361C112.869 81.3964 128.662 81.0453 128.743 66.3768Z" fill="#F8E8D4"/>
<path fill-rule="evenodd" clip-rule="evenodd" d="M109.125 56.5958C111.405 56.4185 113.494 59.2274 113.792 62.8768C114.076 66.5261 112.462 69.6329 110.171 69.8102C107.88 69.9982 105.787 67.1894 105.504 63.54C105.202 59.8941 106.83 56.7838 109.125 56.5958Z" fill="#3A2C16"/>
<path fill-rule="evenodd" clip-rule="evenodd" d="M95.3811 41.2926C99.4383 49.4071 106.843 45.9598 111.255 50.5313C112.883 52.2124 112.192 48.2509 107.563 46.1762C102.935 44.1014 96.9522 41.1826 95.7464 37.2354C93.8454 40.8989 87.4439 42.6899 82.5036 43.8958C77.581 45.1051 76.1801 48.8751 78.0952 47.5203C83.2519 43.8142 89.4903 48.3183 95.3811 41.2926Z" fill="#3A2C16"/>
<path fill-rule="evenodd" clip-rule="evenodd" d="M96.0191 34.2101C96.0191 34.2101 97.8491 36.4763 105.354 38.3631C112.858 40.2499 116.873 46.5592 117.876 51.159C118.894 55.7731 119.614 45.2966 113.156 38.622C106.684 31.9474 98.108 33.6427 96.427 29.8018C94.0792 33.2738 85.9398 30.0607 78.3822 35.4585C70.8103 40.8599 69.6435 51.2902 71.4629 46.9351C73.2929 42.5941 78.3822 37.1112 86.103 36.6111C93.8202 36.1075 96.0191 34.2101 96.0191 34.2101Z" fill="#3A2C16"/>
<path fill-rule="evenodd" clip-rule="evenodd" d="M57.0407 93.8636C57.0407 93.8636 57.7039 97.3108 61.6121 100.687C65.5062 104.053 65.9673 109.968 65.4247 112.451C64.882 114.934 64.8288 108.408 60.0375 104.879C55.2355 101.35 55.6952 93.9544 56.0357 93.6281C57.0996 93.0962 57.0407 93.0514 57.0407 93.8636Z" fill="#3A2C16"/>
<path fill-rule="evenodd" clip-rule="evenodd" d="M72.2051 122.128C71.0773 121.628 69.6835 121.11 67.9457 120.596C56.0861 118.589 52.1388 123.352 60.537 124.097C62.14 124.231 63.8459 124.434 65.4631 124.678C65.4915 124.313 65.5163 124.04 65.5447 123.863C65.7362 122.575 67.3215 122.44 67.3215 122.44C69.0593 122.412 70.6872 122.302 72.2051 122.128ZM64.8673 126.061C54.3128 125.547 51.5997 128.516 58.0154 128.679C60.537 128.746 62.7074 128.746 64.3247 128.789C64.353 128.611 64.3637 128.448 64.3921 128.275C64.4594 127.406 64.6226 126.671 64.8673 126.061ZM64.0409 130.296C59.59 130.867 52.3303 130.988 57.3912 132.289C59.7248 132.885 61.4342 133.034 62.711 132.952C63.2784 132.303 63.7395 131.434 64.0409 130.296Z" fill="#3A2C16"/>
<path fill-rule="evenodd" clip-rule="evenodd" d="M110.482 106.797C110.401 106.768 105.666 105.279 103.141 107.733C100.591 110.202 99.5488 113.429 96.9988 115.085C95.1688 116.266 95.2397 119.156 95.4029 120.582C95.7824 120.515 96.2505 120.295 96.6442 120.227C105.865 117.922 109.028 112.996 110.482 106.797ZM77.0634 122.536C76.8045 121.855 76.1129 119.876 75.8717 118.288C75.5596 116.348 66.3457 118.586 65.7499 119.348C65.1541 120.093 64.7995 125.604 64.5973 126.931V126.945C65.5584 122.859 69.2504 122.902 77.0634 122.536Z" fill="#F8E8D4"/>
<path fill-rule="evenodd" clip-rule="evenodd" d="M107.983 60.2529C107.156 60.2789 106.493 61.0585 106.512 62.0002C106.53 62.9384 107.224 63.6888 108.065 63.6781C108.906 63.6531 109.569 62.8699 109.55 61.9318C109.528 60.9934 108.823 60.2422 107.983 60.2529Z" fill="white"/>
<path d="M81.1166 78.0119C81.0348 77.4397 81.4324 76.9096 82.0046 76.8278C82.5768 76.746 83.1069 77.1436 83.1887 77.7158L81.1166 78.0119ZM100.676 79.524C100.874 78.9807 101.474 78.7 102.017 78.8971C102.561 79.0942 102.841 79.6945 102.644 80.2378L100.676 79.524ZM90.9923 77.5381C91.0517 76.9632 91.566 76.5453 92.1409 76.6047C92.7159 76.6642 93.1338 77.1785 93.0743 77.7534L90.9923 77.5381ZM92.9475 78.98C92.8213 80.2006 91.9354 81.1788 90.9633 81.8288C89.9586 82.5007 88.6687 82.9611 87.3561 83.0733C86.0427 83.1855 84.6217 82.9539 83.4366 82.1304C82.2273 81.2901 81.3893 79.9202 81.1166 78.0119L83.1887 77.7158C83.3926 79.1428 83.9722 79.9536 84.6311 80.4115C85.3142 80.8862 86.212 81.0702 87.178 80.9877C88.1447 80.9051 89.0945 80.5605 89.7997 80.0889C90.5375 79.5956 90.8316 79.092 90.8654 78.7648L92.9475 78.98ZM92.9475 78.9801C92.9136 79.3073 93.0985 79.8604 93.7197 80.4942C94.3135 81.1001 95.1727 81.6318 96.1021 81.9105C97.0307 82.1889 97.9472 82.1924 98.713 81.8676C99.4517 81.5542 100.185 80.8791 100.676 79.524L102.644 80.2378C101.987 82.05 100.886 83.2194 99.5305 83.7945C98.202 84.3581 96.7636 84.294 95.501 83.9154C94.2392 83.5371 93.0707 82.8225 92.2248 81.9593C91.4062 81.124 90.7392 79.9853 90.8654 78.7647L92.9475 78.9801ZM90.8654 78.7647L90.9923 77.5381L93.0743 77.7534L92.9475 78.98L90.8654 78.7647Z" fill="#3A2C16"/>
<path d="M92.3242 74.8315L91.9314 78.6246" stroke="#3A2C16" stroke-width="2.09314"/>
<path d="M81.6625 62.2362C81.2993 60.6019 78.9387 57.3331 76.2148 57.8779" stroke="#3A2C16" stroke-width="2.09314" stroke-linecap="round" stroke-linejoin="round"/>
<path d="M81.6628 62.3437C80.0285 60.1647 74.5808 58.5302 70.2227 62.3437" stroke="#3A2C16" stroke-width="2.09314" stroke-linecap="round" stroke-linejoin="round"/>
<path fill-rule="evenodd" clip-rule="evenodd" d="M100.658 66.7318C102.53 68.5228 98.3243 75.9173 92.2739 75.3747C86.2377 74.8179 83.4288 66.785 85.5851 65.3628C88.5004 63.4477 98.147 64.3308 100.658 66.7318Z" fill="#3A2C16"/>
<path d="M45.7923 103.035C35.7428 98.531 33.5267 86.999 39.3856 74.9965C42.756 68.0851 52.0209 74.8187 47.232 78.1642C39.8023 83.34 42.7188 97.5347 49.1211 98.0617" stroke="#654B22" stroke-width="2.09314"/>
<path d="M104.809 116.5C104.809 116.5 103.891 118.246 103.823 123.512C103.742 128.773 103.852 130.8 103.102 131.699C102.424 132.513 97.6528 133.329 94.6218 132.241M80.6184 130.27C80.6184 130.27 80.565 132.037 78.727 132.489C76.8925 132.937 72.7577 133.018 71.5169 131.959C70.463 131.066 66.8422 126.542 65.7243 124.389" stroke="#654B22" stroke-width="2.09314"/>
<path d="M110.228 90.9034C111.779 98.1893 113.958 117.104 95.8391 120.494C95.8391 120.494 94.7903 120.793 94.7903 122.097C94.7903 123.416 95.3485 130.776 94.6695 132.735C94.0011 134.679 88.59 135.81 84.9032 134.381C81.2306 132.952 79.0548 127.473 78.1838 124.764C77.6541 123.104 77.0568 122.656 76.6586 122.574L76.264 122.588C68.1971 122.94 64.7592 123.022 64.2934 128.301C63.5326 136.72 56.5537 134.911 53.617 133.933C50.6911 132.952 48.0673 124.615 47.918 121.162C47.918 121.162 41.6074 113.206 45.6604 102.842C48.9569 94.413 62.9309 91.3879 69.8675 87.0938" stroke="#654B22" stroke-width="2.09314"/>
<path d="M74.834 34.9333C68.6343 20.7533 43.1816 40.2658 64.7801 51.1634" stroke="#654B22" stroke-width="2.09314"/>
<path d="M117.746 40.0759C125.549 24.2938 149.665 51.2475 123.953 57.2766" stroke="#654B22" stroke-width="2.09314"/>
<path d="M64.293 127.271V127.286" stroke="#654B22" stroke-width="2.09314"/>
<path d="M110.121 91.3235C120.938 88.4862 130.635 82.3282 129.747 71.0535C129.489 67.8169 128.148 64.9435 126.552 62.3415C121.192 53.5871 121.019 44.8046 116.416 38.1974C108.723 27.177 84.8721 25.0262 75.3203 34.4707C69.5956 40.1365 67.8372 48.7569 60.9874 56.3901C58.9459 58.6712 57.1025 61.2591 56.264 64.3899C53.7393 74.7964 60.6638 82.5075 70.1248 87.1969C70.1572 87.2129 70.1896 87.229 70.222 87.245" stroke="#654B22" stroke-width="2.09314"/>
<path d="M74.8334 36.175C70.5775 20.3929 42.5599 39.8989 65.435 51.2478L74.8334 36.175Z" fill="#ED9331"/>
<path d="M72.0656 40.2506C70.9027 26.6117 49.8757 40.8688 67.3181 48.2266L72.0656 40.2506Z" fill="#BB6730"/>
<path fill-rule="evenodd" clip-rule="evenodd" d="M117.037 42.2038C123.952 22.5205 151.261 52.1341 121.824 57.454L117.037 42.2038Z" fill="#ED9331"/>
<path d="M119.164 43.7994C125.903 32.0959 140.798 49.4739 123.243 53.5524L119.164 43.7994Z" fill="#BB6730"/>
</svg>
