<svg width="58" height="48" viewBox="0 0 58 48" fill="none" xmlns="http://www.w3.org/2000/svg">
<path fill-rule="evenodd" clip-rule="evenodd" d="M53.4733 15.9734L49.355 11.855C48.9166 11.414 48.3202 11.1662 47.6983 11.1667H40.3017C39.6798 11.1662 39.0834 11.414 38.645 11.855L34.5267 15.9734C33.8701 16.6291 33.5008 17.5187 33.5 18.4467V25.2717C33.5022 28.1502 34.8324 30.8667 37.105 32.6334L41.865 36.3434C42.2754 36.6619 42.7805 36.8343 43.3 36.8334H44.7C45.2195 36.8343 45.7246 36.6619 46.135 36.3434L50.895 32.6334C53.1676 30.8667 54.4978 28.1502 54.5 25.2717V18.4467C54.4992 17.5187 54.1299 16.6291 53.4733 15.9734ZM52.1667 25.3067C52.1759 27.4679 51.1747 29.5093 49.46 30.825L44.7 34.5H43.3L38.54 30.79C36.8254 29.4743 35.8241 27.4329 35.8333 25.2717V18.4467C35.8346 18.1406 35.9561 17.8473 36.1717 17.63L40.3017 13.5H47.6983L51.8283 17.63C52.0439 17.8473 52.1654 18.1406 52.1667 18.4467V25.3067ZM45.7267 20.57L48.76 20.8034C48.9929 20.8256 49.1911 20.9823 49.2666 21.2037C49.3421 21.4251 49.2808 21.6702 49.11 21.83L46.7767 23.8134L47.4884 26.7767C47.5446 27.0048 47.4585 27.2443 47.27 27.3844C47.0814 27.5246 46.8272 27.5379 46.625 27.4184L44 25.82L41.3634 27.4184C41.1612 27.5379 40.907 27.5246 40.7185 27.3844C40.5299 27.2443 40.4438 27.0048 40.5 26.7767L41.2817 23.8134L38.9484 21.83C38.7784 21.6717 38.716 21.429 38.7887 21.2083C38.8614 20.9877 39.0559 20.8296 39.2867 20.8034L42.32 20.57L43.4867 17.735C43.5784 17.5199 43.7896 17.3803 44.0234 17.3803C44.2572 17.3803 44.4684 17.5199 44.5601 17.735L45.7267 20.57Z" fill="#004C57"/>
<circle opacity="0.1" cx="24" cy="24" r="24" fill="#31B574"/>
</svg>
