<svg width="58" height="48" viewBox="0 0 58 48" fill="none" xmlns="http://www.w3.org/2000/svg">
<path fill-rule="evenodd" clip-rule="evenodd" d="M55.2153 22.6467C54.8766 23.5171 54.8766 24.4829 55.2153 25.3533L55.4137 25.925C56.1364 27.8126 55.2612 29.936 53.4181 30.7667L52.8929 31C52.0315 31.3712 51.3346 32.0429 50.9323 32.89L50.6988 33.415C49.8723 35.2621 47.7438 36.1388 45.8556 35.41L45.3188 35.2117C44.4458 34.8851 43.4842 34.8851 42.6112 35.2117L42.0744 35.41C40.1861 36.1388 38.0577 35.2621 37.2312 33.415L36.9977 32.89C36.6265 32.0289 35.9545 31.3322 35.1071 30.93L34.582 30.6967C32.7389 29.866 31.8636 27.7426 32.5863 25.855L32.7847 25.3183C33.1234 24.4479 33.1234 23.4821 32.7847 22.6117L32.5863 22.075C31.8636 20.1875 32.7389 18.064 34.582 17.2333L35.1071 17C35.9423 16.6151 36.6127 15.9449 36.9977 15.11L37.2662 14.585C38.0927 12.738 40.2212 11.8612 42.1094 12.59L42.6462 12.7883C43.0791 12.9506 43.5377 13.0336 44 13.0333C44.4741 13.0378 44.9449 12.9548 45.3888 12.7883L45.9256 12.59C47.8139 11.8612 49.9423 12.738 50.7689 14.585L51.0023 15.11C51.3873 15.9449 52.0577 16.6151 52.8929 17L53.4181 17.2683C55.2612 18.099 56.1364 20.2225 55.4137 22.11L55.2153 22.6467ZM51.936 28.8417L52.4729 28.5967C53.1887 28.2815 53.5285 27.458 53.2431 26.73L53.0447 26.1583C52.5019 24.7585 52.5019 23.2065 53.0447 21.8067L53.2315 21.305C53.5209 20.564 53.1835 19.7257 52.4612 19.3917L51.9477 19.17C50.5682 18.5498 49.4638 17.4458 48.8434 16.0667L48.5983 15.53C48.362 15.0014 47.8353 14.6626 47.2562 14.6667C47.0759 14.6667 46.8974 14.7024 46.731 14.7717L46.1592 14.97C45.4711 15.2376 44.7384 15.3722 44.0001 15.3667C43.2495 15.3712 42.5048 15.2326 41.8061 14.9583L41.3043 14.7717C41.1248 14.7053 40.9354 14.6698 40.7441 14.6667C40.1597 14.6661 39.6296 15.0087 39.3903 15.5417L39.1686 16.055C38.5571 17.4581 37.4468 18.5846 36.0526 19.2167L35.5157 19.4617C34.8044 19.7812 34.4703 20.6034 34.7571 21.3283L34.9555 21.9C35.4983 23.2998 35.4983 24.8519 34.9555 26.2517L34.7688 26.7533C34.4794 27.4944 34.8168 28.3326 35.5391 28.6667L36.0526 28.83C37.4321 29.4502 38.5365 30.5542 39.1569 31.9333L39.402 32.47C39.6383 32.9986 40.1649 33.3374 40.7441 33.3333C40.9244 33.3333 41.1028 33.2977 41.2693 33.2283L41.8411 33.03C42.5292 32.7624 43.2618 32.6278 44.0001 32.6333C44.7508 32.6288 45.4954 32.7674 46.1942 33.0417L46.696 33.2283C46.8755 33.2948 47.0649 33.3303 47.2562 33.3333C47.8405 33.334 48.3707 32.9913 48.61 32.4583L48.8317 31.945C49.4521 30.5659 50.5565 29.4619 51.936 28.8417ZM44.5836 26.3333H43.4165C43.0943 26.3333 42.833 26.5945 42.833 26.9167V28.0833C42.833 28.4055 43.0943 28.6667 43.4165 28.6667H44.5836C44.9059 28.6667 45.1671 28.4055 45.1671 28.0833V26.9167C45.1671 26.5945 44.9059 26.3333 44.5836 26.3333ZM43.2065 19.3334H44.7937C44.9614 19.3321 45.1215 19.4031 45.2332 19.5282C45.3448 19.6532 45.3973 19.8203 45.3772 19.9867L44.9104 23.7434C44.8926 23.8906 44.767 24.0011 44.6186 24H43.3815C43.2331 24.0011 43.1076 23.8906 43.0898 23.7434L42.623 19.9867C42.6028 19.8203 42.6553 19.6532 42.767 19.5282C42.8787 19.4031 43.0388 19.3321 43.2065 19.3334Z" fill="#004C57"/>
<circle opacity="0.1" cx="24" cy="24" r="24" fill="#31B574"/>
</svg>
