<svg width="58" height="48" viewBox="0 0 58 48" fill="none" xmlns="http://www.w3.org/2000/svg">
<path fill-rule="evenodd" clip-rule="evenodd" d="M52.1863 18.5983L53.5061 17.28C53.7286 17.0532 53.7286 16.6901 53.5061 16.4633L52.6769 15.635C52.5672 15.5245 52.418 15.4624 52.2622 15.4624C52.1065 15.4624 51.9573 15.5245 51.8476 15.635L50.5513 17C49.3232 16.0044 47.886 15.2986 46.3469 14.935V13.5C46.3469 12.8556 45.824 12.3333 45.179 12.3333H42.8432C42.1982 12.3333 41.6753 12.8556 41.6753 13.5V14.935C36.8949 16.0234 33.5027 20.2688 33.5 25.1666C33.5637 30.8222 38.0502 35.4373 43.7074 35.6666C47.8003 35.7762 51.5843 33.5016 53.4043 29.8378C55.2243 26.1741 54.749 21.7881 52.1863 18.5983ZM44.011 33.3333C39.496 33.3333 35.8358 29.677 35.8358 25.1666C35.8358 20.6563 39.496 17 44.011 17C48.5261 17 52.1863 20.6563 52.1863 25.1666C52.1863 29.677 48.5261 33.3333 44.011 33.3333ZM44.2178 19.472C44.3475 19.3604 44.5189 19.3098 44.6885 19.3333C46.8089 19.568 48.6324 20.9392 49.4448 22.9098C50.2572 24.8803 49.9292 27.1366 48.5893 28.795C48.4848 28.9289 48.3281 29.0118 48.1586 29.023C47.989 29.0341 47.8228 28.9724 47.7017 28.8533L44.0111 25.1666V19.9166C44.0128 19.7457 44.0881 19.5837 44.2178 19.472Z" fill="#004C57"/>
<circle opacity="0.1" cx="24" cy="24" r="24" fill="#31B574"/>
</svg>
