<svg xmlns="http://www.w3.org/2000/svg" viewBox="0 0 100.28 100.28"><defs><style>.cls-1{fill:none;}.cls-2{fill:#878787;}.cls-3{fill:#fff;}.cls-4{fill:#008c00;}</style></defs><title>Накладные</title><g id="Слой_2" data-name="Слой 2"><g id="Отправлено_в_производство_Выполнено" data-name="Отправлено в производство \ Выполнено"><rect class="cls-1" x="0.14" y="0.14" width="100" height="100" transform="translate(-0.14 0.14) rotate(-0.16)"/><path class="cls-2" d="M83,24.48v63a8.32,8.32,0,0,1-8.32,8.32H24.8a8.32,8.32,0,0,1-8.32-8.32v-63a8.32,8.32,0,0,1,8.32-8.32H38.67a11.09,11.09,0,0,1,22.18,0H74.71A8.32,8.32,0,0,1,83,24.48ZM66.39,28.64A1.39,1.39,0,0,0,65,27.26H34.51a1.39,1.39,0,0,0-1.39,1.39v2.77a1.39,1.39,0,0,0,1.39,1.39H65a1.39,1.39,0,0,0,1.39-1.39ZM45.6,16.17A4.16,4.16,0,1,0,49.76,12,4.15,4.15,0,0,0,45.6,16.17Z"/><path class="cls-3" d="M35.58,82.18a3.87,3.87,0,0,1-3.87-3.87V50a3.87,3.87,0,0,1,3.87-3.87H63.93A3.87,3.87,0,0,1,67.8,50V78.31a3.87,3.87,0,0,1-3.87,3.87Z"/><path class="cls-4" d="M37.81,79.33a3.26,3.26,0,0,1-3.26-3.26V52.19a3.26,3.26,0,0,1,3.26-3.26H61.7A3.26,3.26,0,0,1,65,52.19V76.08a3.26,3.26,0,0,1-3.26,3.26Z"/><path class="cls-3" d="M61.08,59.9a1.17,1.17,0,0,0,0-1.65L59.43,56.6a1.17,1.17,0,0,0-1.65,0L46.84,67.54l-5.11-5.11a1.17,1.17,0,0,0-1.65,0l-1.65,1.65a1.17,1.17,0,0,0,0,1.65L46,73.32a1.17,1.17,0,0,0,1.65,0Z"/></g></g></svg>